<svg width="110" height="110" viewBox="0 0 110 110" fill="none" xmlns="http://www.w3.org/2000/svg">
<g clip-path="url(#clip0_208_207)">
<path d="M0 0H110V19.1304H0V0Z" fill="#7C7D7D"/>
<path d="M110 0V14.3478H21.5217C17.7164 14.3478 14.0669 12.8362 11.3762 10.1454C8.68547 7.45471 7.17383 3.80528 7.17383 0H110Z" fill="#919191"/>
<path d="M0 19.1304H110V90.8695H0V19.1304Z" fill="#DAD7E5"/>
<path d="M110 19.1304V86.0869H74.1303C56.3724 86.0869 39.3417 79.0326 26.7849 66.4758C14.2282 53.919 7.17383 36.8883 7.17383 19.1304H110Z" fill="#EDEBF2"/>
<path d="M83.6958 45.4348H98.0436V98.0435H83.6958V45.4348Z" fill="#FFCC66"/>
<path d="M98.0435 45.4348V93.2609C95.5066 93.2609 93.0737 92.2531 91.2799 90.4593C89.486 88.6655 88.4783 86.2325 88.4783 83.6957V45.4348H98.0435Z" fill="#FFDE76"/>
<path d="M98.0436 38.2608V45.4347H83.6958V38.2608C83.6975 36.3588 84.4544 34.5353 85.8002 33.1913C86.6375 32.3614 87.663 31.7461 88.7893 31.3978C89.4645 31.1958 90.165 31.0911 90.8697 31.0869C92.7724 31.0869 94.5971 31.8427 95.9424 33.1881C97.2878 34.5335 98.0436 36.3582 98.0436 38.2608Z" fill="#DB5669"/>
<path d="M98.0435 38.2608V40.6521H95.6522C93.7495 40.6521 91.9248 39.8963 90.5795 38.5509C89.2341 37.2056 88.4783 35.3809 88.4783 33.4782C88.4825 32.7735 88.5872 32.073 88.7891 31.3978C89.4643 31.1958 90.1648 31.0911 90.8696 31.0869C92.7722 31.0869 94.5969 31.8427 95.9423 33.1881C97.2877 34.5335 98.0435 36.3582 98.0435 38.2608Z" fill="#F26674"/>
<path d="M98.0436 98.0435L92.8306 106.796L90.9175 110L83.6958 98.0435H98.0436Z" fill="#F6CCAF"/>
<path d="M98.0437 98.0435L92.8307 106.796L87.522 98.0435H98.0437Z" fill="#FFDEC7"/>
<path d="M11.9565 31.0869H45.4348V50.2174H11.9565V31.0869Z" fill="#6FABE6"/>
<path d="M45.4347 31.0869V45.4347H33.4782C29.6729 45.4347 26.0235 43.9231 23.3328 41.2324C20.642 38.5416 19.1304 34.8922 19.1304 31.0869H45.4347Z" fill="#82BCF4"/>
<path d="M74.1304 38.2609H55C54.3658 38.2609 53.7575 38.0089 53.3091 37.5605C52.8606 37.112 52.6087 36.5038 52.6087 35.8696C52.6087 35.2354 52.8606 34.6271 53.3091 34.1787C53.7575 33.7302 54.3658 33.4783 55 33.4783H74.1304C74.7646 33.4783 75.3729 33.7302 75.8213 34.1787C76.2698 34.6271 76.5217 35.2354 76.5217 35.8696C76.5217 36.5038 76.2698 37.112 75.8213 37.5605C75.3729 38.0089 74.7646 38.2609 74.1304 38.2609ZM74.1304 47.8261H55C54.3658 47.8261 53.7575 47.5742 53.3091 47.1257C52.8606 46.6772 52.6087 46.069 52.6087 45.4348C52.6087 44.8006 52.8606 44.1923 53.3091 43.7439C53.7575 43.2954 54.3658 43.0435 55 43.0435H74.1304C74.7646 43.0435 75.3729 43.2954 75.8213 43.7439C76.2698 44.1923 76.5217 44.8006 76.5217 45.4348C76.5217 46.069 76.2698 46.6772 75.8213 47.1257C75.3729 47.5742 74.7646 47.8261 74.1304 47.8261ZM74.1304 62.1739H11.9565C11.3223 62.1739 10.714 61.922 10.2656 61.4735C9.81713 61.0251 9.56519 60.4168 9.56519 59.7826C9.56519 59.1484 9.81713 58.5402 10.2656 58.0917C10.714 57.6433 11.3223 57.3913 11.9565 57.3913H74.1304C74.7646 57.3913 75.3729 57.6433 75.8213 58.0917C76.2698 58.5402 76.5217 59.1484 76.5217 59.7826C76.5217 60.4168 76.2698 61.0251 75.8213 61.4735C75.3729 61.922 74.7646 62.1739 74.1304 62.1739ZM74.1304 71.7391H11.9565C11.3223 71.7391 10.714 71.4872 10.2656 71.0387C9.81713 70.5903 9.56519 69.9821 9.56519 69.3478C9.56519 68.7136 9.81713 68.1054 10.2656 67.6569C10.714 67.2085 11.3223 66.9565 11.9565 66.9565H74.1304C74.7646 66.9565 75.3729 67.2085 75.8213 67.6569C76.2698 68.1054 76.5217 68.7136 76.5217 69.3478C76.5217 69.9821 76.2698 70.5903 75.8213 71.0387C75.3729 71.4872 74.7646 71.7391 74.1304 71.7391ZM74.1304 81.3044H11.9565C11.3223 81.3044 10.714 81.0524 10.2656 80.604C9.81713 80.1555 9.56519 79.5473 9.56519 78.9131C9.56519 78.2788 9.81713 77.6706 10.2656 77.2221C10.714 76.7737 11.3223 76.5218 11.9565 76.5218H74.1304C74.7646 76.5218 75.3729 76.7737 75.8213 77.2221C76.2698 77.6706 76.5217 78.2788 76.5217 78.9131C76.5217 79.5473 76.2698 80.1555 75.8213 80.604C75.3729 81.0524 74.7646 81.3044 74.1304 81.3044Z" fill="#919191"/>
<path d="M9.56531 11.9562C9.09321 11.9539 8.63236 11.8118 8.24086 11.548C7.84935 11.2841 7.54471 10.9103 7.36531 10.4736C7.23144 10.1898 7.16592 9.87861 7.17401 9.56493C7.18281 8.93179 7.43051 8.32536 7.86748 7.8671C8.09491 7.6494 8.36308 7.47874 8.65661 7.36493C9.23881 7.12575 9.89182 7.12575 10.474 7.36493C10.7708 7.47233 11.0403 7.64367 11.2634 7.86683C11.4866 8.08998 11.6579 8.35948 11.7653 8.65623C11.8878 8.94372 11.9528 9.25244 11.9566 9.56493C11.9566 10.1991 11.7047 10.8074 11.2562 11.2558C10.8078 11.7043 10.1995 11.9562 9.56531 11.9562ZM19.1305 11.9562C18.6584 11.9539 18.1976 11.8118 17.8061 11.548C17.4146 11.2841 17.1099 10.9103 16.9305 10.4736C16.7967 10.1898 16.7311 9.87861 16.7392 9.56493C16.748 8.93179 16.9957 8.32536 17.4327 7.8671C17.6601 7.6494 17.9283 7.47874 18.2218 7.36493C18.804 7.12575 19.457 7.12575 20.0392 7.36493C20.336 7.47233 20.6055 7.64367 20.8286 7.86683C21.0518 8.08998 21.2231 8.35948 21.3305 8.65623C21.4531 8.94372 21.5181 9.25244 21.5218 9.56493C21.5218 10.1991 21.2699 10.8074 20.8214 11.2558C20.373 11.7043 19.7647 11.9562 19.1305 11.9562ZM28.6957 11.9562C28.2236 11.9539 27.7628 11.8118 27.3713 11.548C26.9798 11.2841 26.6751 10.9103 26.4957 10.4736C26.3619 10.1898 26.2964 9.87861 26.3044 9.56493C26.3132 8.93179 26.5609 8.32536 26.9979 7.8671C27.2253 7.6494 27.4935 7.47874 27.787 7.36493C28.3692 7.12575 29.0222 7.12575 29.6044 7.36493C29.9012 7.47233 30.1707 7.64367 30.3938 7.86683C30.617 8.08998 30.7883 8.35948 30.8957 8.65623C31.0183 8.94372 31.0833 9.25244 31.087 9.56493C31.087 10.1991 30.8351 10.8074 30.3867 11.2558C29.9382 11.7043 29.33 11.9562 28.6957 11.9562Z" fill="#EDEBF2"/>
</g>
<defs>
<clipPath id="clip0_208_207">
<rect width="110" height="110" fill="white"/>
</clipPath>
</defs>
</svg>
