<svg width="40" height="40" viewBox="0 0 40 40" fill="none" xmlns="http://www.w3.org/2000/svg">
<path d="M20.0045 9.74445C14.329 9.74445 9.75119 14.3234 9.75119 20C9.75119 25.6767 14.329 30.2554 20.0045 30.2554C25.6799 30.2554 30.2577 25.6766 30.2577 20C30.2577 14.3234 25.6799 9.74445 20.0045 9.74445ZM20.0045 26.6676C16.337 26.6676 13.3385 23.6773 13.3385 20C13.3385 16.3227 16.3279 13.3327 20.0045 13.3327C23.6808 13.3327 26.6704 16.3227 26.6704 20C26.6704 23.6773 23.6721 26.6676 20.0045 26.6676ZM33.0686 9.32505C33.0686 10.655 31.9977 11.7171 30.6771 11.7171C29.3474 11.7171 28.2856 10.646 28.2856 9.32505C28.2856 8.00404 29.3563 6.93293 30.6771 6.93293C31.9977 6.93293 33.0686 8.00396 33.0686 9.32505ZM39.8594 11.7526C39.7078 8.54852 38.9761 5.71004 36.6291 3.37158C34.2912 1.03304 31.4534 0.301135 28.25 0.140576C24.9481 -0.0468586 15.0519 -0.0468586 11.7502 0.140576C8.55545 0.292176 5.71778 1.02417 3.3709 3.36271C1.02394 5.70125 0.301153 8.53956 0.140544 11.7438C-0.046848 15.0462 -0.046848 24.9448 0.140544 28.2473C0.292284 31.4517 1.02394 34.2899 3.3709 36.6285C5.71778 38.967 8.54666 39.6988 11.7502 39.8595C15.0518 40.0468 24.9481 40.0468 28.25 39.8595C31.4535 39.7078 34.2913 38.9757 36.6291 36.6285C38.9671 34.2898 39.6989 31.4516 39.8594 28.2473C40.0469 24.9449 40.0469 15.0552 39.8594 11.7526ZM35.5939 31.7908C34.8979 33.5401 33.5504 34.8881 31.7925 35.5931C29.16 36.6376 22.9135 36.3964 20.0044 36.3964C17.0952 36.3964 10.8398 36.6286 8.21631 35.5931C6.46726 34.8969 5.11969 33.5493 4.41482 31.7908C3.3709 29.1578 3.61195 22.9098 3.61195 20C3.61195 17.0902 3.37986 10.8335 4.41491 8.20931C5.11108 6.45986 6.45839 5.11207 8.2164 4.40704C10.8488 3.36271 17.0953 3.60372 20.0045 3.60372C22.9135 3.60372 29.169 3.37167 31.7926 4.40704C33.5415 5.10303 34.889 6.45099 35.594 8.20931C36.6381 10.8423 36.3972 17.0902 36.3972 20C36.3972 22.9098 36.638 29.1667 35.5939 31.7908Z" fill="url(#paint0_linear_143_1068)"/>
<defs>
<linearGradient id="paint0_linear_143_1068" x1="4.20426" y1="5.01635" x2="31.9916" y2="31.3627" gradientUnits="userSpaceOnUse">
<stop stop-color="#FEC053"/>
<stop offset="0.3273" stop-color="#F2203E"/>
<stop offset="0.6485" stop-color="#B729A8"/>
<stop offset="1" stop-color="#5342D6"/>
</linearGradient>
</defs>
</svg>
