<svg width="109" height="112" viewBox="0 0 109 112" fill="none" xmlns="http://www.w3.org/2000/svg">
<g clip-path="url(#clip0_185_218)">
<g filter="url(#filter0_d_185_218)">
<path d="M51.3151 97.0818C76.7588 97.0818 97.3851 75.7816 97.3851 49.5065C97.3851 23.2313 76.7588 1.93109 51.3151 1.93109C25.8713 1.93109 5.24512 23.2313 5.24512 49.5065C5.24512 75.7816 25.8713 97.0818 51.3151 97.0818Z" fill="#9AE0FF"/>
</g>
<g filter="url(#filter1_d_185_218)">
<path d="M86.7729 42.6806L86.7669 42.1969C86.5428 36 84.3344 31.6135 79.8055 28.3852C76.087 25.7932 70.8406 24.3655 65.0292 24.3655H64.8755C60.1737 24.3655 55.2527 25.3514 51.7249 26.9969L51.1564 27.2591L50.5998 27.0043C47.8658 25.7194 44.0924 24.8025 40.25 24.4849C40.1964 24.4812 40.1404 24.4788 40.0903 24.48L33.6437 24.5649C33.5865 24.5662 33.5305 24.5686 33.4733 24.576C29.1422 25.0843 25.351 26.4025 22.493 28.3975C17.9724 31.6172 15.764 36.0037 15.5459 42.2388L15.5375 42.8172C15.5304 43.1028 15.5244 43.3809 15.5244 43.6554C15.5959 52.4628 17.5326 56.0726 19.7733 60.2535L20.1463 60.944C22.6861 65.4708 25.1615 70.6954 25.0948 80.352C25.0817 93.6542 27.4474 100.565 29.4402 104.027C31.7678 108.023 32.9346 109.184 36.1954 109.184C39.3263 109.184 41.176 106.352 41.381 103.59C41.5312 102.015 41.561 100.181 41.5908 98.2425C41.6611 93.7514 41.7505 88.1612 43.3917 82.4492L43.4322 82.3077C44.0829 80.1022 44.8934 77.3588 46.4248 74.9772C47.3569 73.5298 49.3424 71.9717 51.5151 71.9717C53.2194 71.9717 54.6782 72.9698 55.8605 74.9329C57.3217 77.3662 58.1965 79.9828 58.9199 82.4369C60.5635 88.1428 61.2726 94.7532 60.8173 100.119C60.542 103.402 61.1188 105.877 62.5347 107.476C63.6539 108.736 65.1174 109.186 66.115 109.186H66.1174C69.3019 109.186 70.6534 107.834 72.8655 104.023C74.8546 100.572 77.2252 93.6652 77.2132 80.3434C77.1513 70.7015 79.6243 65.4732 82.1855 60.9108L82.5288 60.2695C84.7706 56.0898 86.7049 52.4788 86.78 43.6431C86.7848 43.3317 86.78 43.0129 86.7729 42.6806Z" fill="#F4F2E8"/>
</g>
<g filter="url(#filter2_d_185_218)">
<path d="M87.6274 42.5944L87.6191 42.1612C87.3855 35.6627 85.0614 31.0572 80.2834 27.6504C76.4255 24.9612 71.0086 23.4806 65.0328 23.4806H64.8683C60.0522 23.4806 55.0024 24.4947 51.3709 26.1883L51.1528 26.2892L50.9526 26.1969C48.0875 24.8517 44.3106 23.9323 40.3168 23.6037C40.2381 23.5975 40.1559 23.5951 40.0796 23.5963L33.6342 23.6812C33.5484 23.6824 33.4626 23.6886 33.3768 23.6984C28.9122 24.2215 24.9875 25.5901 22.008 27.6701C17.2442 31.0658 14.919 35.6701 14.689 42.2314L14.6782 42.8012C14.6735 43.0941 14.6687 43.376 14.6687 43.6627C14.7414 52.6954 16.7282 56.3975 19.0248 60.6818L19.405 61.3895C21.8864 65.8092 24.3034 70.912 24.2402 80.3507C24.2283 93.8535 26.6608 100.921 28.7096 104.481C30.9693 108.366 32.3601 110.068 36.1978 110.068C39.8508 110.068 42.0032 106.823 42.232 103.68C42.387 102.065 42.4168 100.215 42.4477 98.2547C42.5193 93.8178 42.6063 88.2966 44.2081 82.7089L44.2498 82.5698C44.9196 80.3089 45.6764 77.7452 47.14 75.4671C47.973 74.1698 49.7465 72.8578 51.5163 72.8578C52.9024 72.8578 54.1205 73.712 55.1335 75.3969C56.5351 77.7341 57.3908 80.2929 58.1 82.688C59.7125 88.2917 60.4097 94.7766 59.9628 100.043C59.666 103.583 60.3191 106.283 61.9043 108.07C63.5502 109.924 65.5453 110.068 66.1162 110.068H66.1186C69.7429 110.068 71.3554 108.345 73.6008 104.471C75.646 100.926 78.0821 93.8609 78.0702 80.3323C78.0106 70.9132 80.4288 65.8055 82.9352 61.3329L83.2784 60.6917C85.5763 56.4074 87.5583 52.7064 87.6381 43.6406C87.6405 43.3046 87.6346 42.9563 87.6274 42.5944ZM78.7865 58.1243L78.4659 58.7261C75.7533 63.5606 72.8667 69.6197 72.9358 80.3557C72.9441 93.3095 70.5915 99.3267 69.1911 101.754C67.4665 104.726 67.1447 104.764 66.1567 104.764C65.4702 104.678 64.8457 103.316 65.0817 100.506C65.5906 94.5243 64.8397 87.4794 63.021 81.1594C62.2034 78.4012 61.2118 75.4535 59.5004 72.6031C57.5434 69.3464 54.708 67.552 51.5175 67.552C47.7478 67.552 44.4524 70.0541 42.8589 72.5354C40.983 75.456 40.0701 78.5415 39.3371 81.0215L39.2894 81.1827C37.4814 87.4867 37.3873 93.4104 37.3122 98.1698C37.2836 100.098 37.2562 101.764 37.1167 103.221C37.1155 103.236 36.9439 104.767 36.199 104.767C34.9679 104.767 34.8677 104.767 33.1217 101.766C31.7189 99.3292 29.3687 93.3058 29.3782 80.3754C29.4533 69.6184 26.5643 63.5643 23.8803 58.7827L23.5228 58.1144C21.4025 54.1637 19.8698 51.3083 19.809 43.6455C19.809 43.4117 19.8138 43.1655 19.8186 42.9083L19.8269 42.3618C19.9973 37.5544 21.5217 34.4677 24.9065 32.0554C27.1578 30.4849 30.2411 29.4252 33.832 28.9883L40.0271 28.9083C43.35 29.1926 46.5524 29.9643 48.8466 31.0424L50.023 31.5815L58.5934 36.2794C58.9772 36.4898 59.3907 36.5895 59.7959 36.5895C60.716 36.5895 61.6087 36.0775 62.0676 35.1803C62.7314 33.8855 62.2547 32.2806 61.0021 31.5926L57.5029 29.6738C59.815 29.1126 62.3965 28.7914 64.8695 28.7914H65.034C69.9241 28.7914 74.4351 29.9815 77.3873 32.0381C80.7875 34.4627 82.3107 37.5507 82.4835 42.3089L82.4907 42.6966C82.4966 43.0252 82.5026 43.3378 82.5026 43.6209C82.4382 51.3144 80.9055 54.1711 78.7865 58.1243Z" fill="#3B6A75"/>
</g>
<g filter="url(#filter3_d_185_218)">
<path d="M102.845 17.9114C95.2634 17.9114 95.1228 7.46339 95.1192 7.02523C95.1192 7.02154 95.1192 7.01662 95.1192 7.01169C95.1192 7.01046 95.1192 7.008 95.1192 7.00677C95.1192 7.00185 95.1192 6.99569 95.1192 6.98954C95.118 6.98708 95.118 6.98585 95.1192 6.98585C95.118 6.98339 95.118 6.98216 95.1192 6.98216C95.1192 6.98092 95.1192 6.97969 95.1192 6.97846C95.0966 5.53477 93.956 4.37292 92.552 4.37292C91.1361 4.37292 89.9872 5.55692 89.9836 7.01908C89.9813 7.472 89.837 17.9114 82.257 17.9114C82.2535 17.9114 82.2511 17.9114 82.2475 17.9114C82.2463 17.9114 82.2439 17.9114 82.2416 17.9114H82.2404C82.2392 17.9114 82.238 17.9114 82.2356 17.9114C80.8245 17.9237 79.6863 19.1077 79.6863 20.5649C79.6863 22.0222 80.8257 23.2062 82.2368 23.2172C83.0484 23.2332 89.9836 23.6862 89.9836 34.1046C89.9836 35.568 91.1349 36.7569 92.552 36.7569C93.9691 36.7569 95.1192 35.568 95.1192 34.1034C95.1192 23.6677 102.075 23.232 102.845 23.2148C104.262 23.2148 105.412 22.0271 105.412 20.5637C105.412 19.0991 104.262 17.9114 102.845 17.9114ZM92.5484 23.8486C91.7166 22.5268 90.7357 21.4683 89.6928 20.6363C90.8608 19.6505 91.8024 18.4492 92.5484 17.1397C93.2981 18.448 94.2385 19.6505 95.4053 20.6363C94.3624 21.4683 93.3815 22.5268 92.5484 23.8486Z" fill="#99B3B7"/>
</g>
<g filter="url(#filter4_d_185_218)">
<path d="M50.1756 48.288C42.8101 48.288 42.6707 38.1169 42.6683 37.6899C42.6683 36.2277 41.5229 35.0449 40.1071 35.0425C40.1047 35.0425 40.1023 35.0425 40.1011 35.0425C38.6888 35.0425 37.5411 36.224 37.5339 37.6837C37.5315 38.1169 37.3921 48.288 30.0242 48.288C28.6071 48.288 27.457 49.4757 27.457 50.9391C27.457 52.4049 28.6071 53.5926 30.0242 53.5926C30.3317 53.5926 37.5339 53.7133 37.5339 64.1871C37.5339 65.6517 38.684 66.8394 40.1011 66.8394C41.5182 66.8394 42.6683 65.6517 42.6683 64.1871C42.6683 54.0369 49.4295 53.6074 50.1756 53.5926C51.5939 53.5926 52.744 52.4049 52.744 50.9391C52.744 49.4757 51.595 48.288 50.1756 48.288ZM40.0999 54.048C39.305 52.8062 38.3777 51.8043 37.3921 51.0068C38.4909 50.0665 39.3848 48.9292 40.0999 47.6936C40.8162 48.9292 41.7089 50.0677 42.8077 51.0068C41.8221 51.8043 40.8937 52.8062 40.0999 54.048Z" fill="#99B3B7"/>
</g>
<g filter="url(#filter5_d_185_218)">
<path d="M19.9235 17.6997C15.5424 17.6997 15.3696 11.6591 15.3648 10.9809C15.3648 10.9772 15.3648 10.9748 15.3648 10.9723C15.3648 10.9699 15.3648 10.9662 15.3648 10.9637C15.3564 9.50525 14.2099 8.32617 12.7964 8.32617C11.3805 8.32617 10.2328 9.50894 10.2292 10.9699C10.2233 11.6628 10.0493 17.6985 5.67287 17.6985C4.2546 17.6985 3.10449 18.8862 3.10449 20.352C3.10449 21.8166 4.2546 23.0056 5.67287 23.0056C6.13888 23.0056 10.2292 23.1926 10.2292 29.7206C10.2292 31.1865 11.3793 32.3742 12.7964 32.3742C14.2147 32.3742 15.3648 31.1865 15.3648 29.7219C15.3648 23.4585 19.1905 23.0277 19.9235 23.0056C21.3418 23.0056 22.4919 21.8166 22.4919 20.352C22.4931 18.8874 21.343 17.6997 19.9235 17.6997ZM12.7964 21.2283C12.5521 20.9243 12.2947 20.6413 12.0289 20.3828C12.3042 20.0923 12.5604 19.7846 12.7964 19.4609C13.0336 19.7846 13.2898 20.0923 13.5663 20.3828C13.3006 20.6413 13.0431 20.9243 12.7964 21.2283Z" fill="#99B3B7"/>
</g>
<g filter="url(#filter6_d_185_218)">
<path d="M74.5783 49.2172C74.5306 49.2172 74.4829 49.2172 74.434 49.2135C73.1743 49.1335 72.2184 48.0135 72.2959 46.7139C72.4258 44.5219 72.253 40.4726 69.6107 37.9926C68.6799 37.1175 68.6096 35.6246 69.4594 34.6609C70.3091 33.6985 71.7524 33.6271 72.6856 34.5034C75.689 37.3231 77.1693 41.7612 76.8534 47.0055C76.7784 48.256 75.7737 49.2172 74.5783 49.2172Z" fill="white"/>
</g>
</g>
<defs>
<filter id="filter0_d_185_218" x="1.24512" y="1.93109" width="100.14" height="103.151" filterUnits="userSpaceOnUse" color-interpolation-filters="sRGB">
<feFlood flood-opacity="0" result="BackgroundImageFix"/>
<feColorMatrix in="SourceAlpha" type="matrix" values="0 0 0 0 0 0 0 0 0 0 0 0 0 0 0 0 0 0 127 0" result="hardAlpha"/>
<feOffset dy="4"/>
<feGaussianBlur stdDeviation="2"/>
<feComposite in2="hardAlpha" operator="out"/>
<feColorMatrix type="matrix" values="0 0 0 0 0 0 0 0 0 0 0 0 0 0 0 0 0 0 0.25 0"/>
<feBlend mode="normal" in2="BackgroundImageFix" result="effect1_dropShadow_185_218"/>
<feBlend mode="normal" in="SourceGraphic" in2="effect1_dropShadow_185_218" result="shape"/>
</filter>
<filter id="filter1_d_185_218" x="11.5244" y="24.3655" width="79.2576" height="92.8205" filterUnits="userSpaceOnUse" color-interpolation-filters="sRGB">
<feFlood flood-opacity="0" result="BackgroundImageFix"/>
<feColorMatrix in="SourceAlpha" type="matrix" values="0 0 0 0 0 0 0 0 0 0 0 0 0 0 0 0 0 0 127 0" result="hardAlpha"/>
<feOffset dy="4"/>
<feGaussianBlur stdDeviation="2"/>
<feComposite in2="hardAlpha" operator="out"/>
<feColorMatrix type="matrix" values="0 0 0 0 0 0 0 0 0 0 0 0 0 0 0 0 0 0 0.25 0"/>
<feBlend mode="normal" in2="BackgroundImageFix" result="effect1_dropShadow_185_218"/>
<feBlend mode="normal" in="SourceGraphic" in2="effect1_dropShadow_185_218" result="shape"/>
</filter>
<filter id="filter2_d_185_218" x="10.6687" y="23.4806" width="80.97" height="94.5874" filterUnits="userSpaceOnUse" color-interpolation-filters="sRGB">
<feFlood flood-opacity="0" result="BackgroundImageFix"/>
<feColorMatrix in="SourceAlpha" type="matrix" values="0 0 0 0 0 0 0 0 0 0 0 0 0 0 0 0 0 0 127 0" result="hardAlpha"/>
<feOffset dy="4"/>
<feGaussianBlur stdDeviation="2"/>
<feComposite in2="hardAlpha" operator="out"/>
<feColorMatrix type="matrix" values="0 0 0 0 0 0 0 0 0 0 0 0 0 0 0 0 0 0 0.25 0"/>
<feBlend mode="normal" in2="BackgroundImageFix" result="effect1_dropShadow_185_218"/>
<feBlend mode="normal" in="SourceGraphic" in2="effect1_dropShadow_185_218" result="shape"/>
</filter>
<filter id="filter3_d_185_218" x="75.6863" y="4.37292" width="33.7256" height="40.384" filterUnits="userSpaceOnUse" color-interpolation-filters="sRGB">
<feFlood flood-opacity="0" result="BackgroundImageFix"/>
<feColorMatrix in="SourceAlpha" type="matrix" values="0 0 0 0 0 0 0 0 0 0 0 0 0 0 0 0 0 0 127 0" result="hardAlpha"/>
<feOffset dy="4"/>
<feGaussianBlur stdDeviation="2"/>
<feComposite in2="hardAlpha" operator="out"/>
<feColorMatrix type="matrix" values="0 0 0 0 0 0 0 0 0 0 0 0 0 0 0 0 0 0 0.25 0"/>
<feBlend mode="normal" in2="BackgroundImageFix" result="effect1_dropShadow_185_218"/>
<feBlend mode="normal" in="SourceGraphic" in2="effect1_dropShadow_185_218" result="shape"/>
</filter>
<filter id="filter4_d_185_218" x="23.457" y="35.0425" width="33.2871" height="39.7969" filterUnits="userSpaceOnUse" color-interpolation-filters="sRGB">
<feFlood flood-opacity="0" result="BackgroundImageFix"/>
<feColorMatrix in="SourceAlpha" type="matrix" values="0 0 0 0 0 0 0 0 0 0 0 0 0 0 0 0 0 0 127 0" result="hardAlpha"/>
<feOffset dy="4"/>
<feGaussianBlur stdDeviation="2"/>
<feComposite in2="hardAlpha" operator="out"/>
<feColorMatrix type="matrix" values="0 0 0 0 0 0 0 0 0 0 0 0 0 0 0 0 0 0 0.25 0"/>
<feBlend mode="normal" in2="BackgroundImageFix" result="effect1_dropShadow_185_218"/>
<feBlend mode="normal" in="SourceGraphic" in2="effect1_dropShadow_185_218" result="shape"/>
</filter>
<filter id="filter5_d_185_218" x="-0.895508" y="8.32617" width="27.3875" height="32.048" filterUnits="userSpaceOnUse" color-interpolation-filters="sRGB">
<feFlood flood-opacity="0" result="BackgroundImageFix"/>
<feColorMatrix in="SourceAlpha" type="matrix" values="0 0 0 0 0 0 0 0 0 0 0 0 0 0 0 0 0 0 127 0" result="hardAlpha"/>
<feOffset dy="4"/>
<feGaussianBlur stdDeviation="2"/>
<feComposite in2="hardAlpha" operator="out"/>
<feColorMatrix type="matrix" values="0 0 0 0 0 0 0 0 0 0 0 0 0 0 0 0 0 0 0.25 0"/>
<feBlend mode="normal" in2="BackgroundImageFix" result="effect1_dropShadow_185_218"/>
<feBlend mode="normal" in="SourceGraphic" in2="effect1_dropShadow_185_218" result="shape"/>
</filter>
<filter id="filter6_d_185_218" x="64.8647" y="33.89" width="16.0305" height="23.3272" filterUnits="userSpaceOnUse" color-interpolation-filters="sRGB">
<feFlood flood-opacity="0" result="BackgroundImageFix"/>
<feColorMatrix in="SourceAlpha" type="matrix" values="0 0 0 0 0 0 0 0 0 0 0 0 0 0 0 0 0 0 127 0" result="hardAlpha"/>
<feOffset dy="4"/>
<feGaussianBlur stdDeviation="2"/>
<feComposite in2="hardAlpha" operator="out"/>
<feColorMatrix type="matrix" values="0 0 0 0 0 0 0 0 0 0 0 0 0 0 0 0 0 0 0.25 0"/>
<feBlend mode="normal" in2="BackgroundImageFix" result="effect1_dropShadow_185_218"/>
<feBlend mode="normal" in="SourceGraphic" in2="effect1_dropShadow_185_218" result="shape"/>
</filter>
<clipPath id="clip0_185_218">
<rect width="109" height="112" fill="white"/>
</clipPath>
</defs>
</svg>
