<svg width="63" height="114" viewBox="0 0 63 114" fill="none" xmlns="http://www.w3.org/2000/svg">
<g clip-path="url(#clip0_186_237)">
<path d="M42.5999 98.6613L31.2131 110.219L19.8516 98.6613V57.5121H42.5999V98.6613Z" fill="#9AE0FF"/>
<path d="M47.8361 47.4828H14.6152V57.5107H47.8361V47.4828Z" fill="white"/>
<path d="M59.9473 18.1782C59.7572 12.2604 57.7528 8.84313 54.6824 6.39335C51.5956 3.98297 47.2352 2.85279 42.9044 2.86424C38.8978 2.85279 34.944 3.82533 32.2813 5.22121L31.2121 5.7755L30.1451 5.21994C28.0022 4.08976 25.0154 3.26215 21.8517 2.97484L16.3802 3.05366C13.1517 3.48081 10.0769 4.56395 7.73518 6.39462C4.66705 8.8444 2.66156 12.2654 2.47804 18.1795C2.47804 18.6461 2.43738 25.1767 7.08134 37.104C9.39123 43.0333 10.5703 47.4841 10.5703 47.4841H51.8506C51.8506 47.4841 53.4044 41.9616 55.3044 37.2019C57.7736 31.0018 59.6253 25.178 59.9693 19.4953C59.9956 19.0732 59.9528 18.641 59.9473 18.1782Z" fill="#F4F2E8"/>
<path d="M14.1121 66.6291L47.3359 75.1936L48.4129 69.6021L15.1891 61.0376L14.1121 66.6291Z" fill="#3B6A75"/>
<path d="M45.0748 78.4438H40.1254V82.7446L22.3276 78.154V72.5793H17.3759V76.8827L15.0946 76.2941L14.0166 81.8827L47.2364 90.4525L48.3133 84.8626L45.0748 84.0273V78.4438Z" fill="#3B6A75"/>
<path d="M40.1254 95.7958H22.3276V87.8528H17.376V101.522H18.9177L29.5958 112.37C30.0628 112.846 30.6452 113.083 31.2287 113.083C31.8111 113.083 32.3958 112.846 32.8606 112.37L43.5342 101.522H45.0738V93.7147H40.1243V95.7958H40.1254ZM31.2287 106.405L26.4221 101.523H36.032L31.2287 106.405Z" fill="#3B6A75"/>
<path d="M62.4352 18.538C62.4297 18.4096 62.4231 18.2799 62.4209 18.0702C62.2198 11.7849 60.2077 7.32646 56.0681 4.01983C52.7473 1.42766 48.0923 0 42.9604 0H42.8451C38.7121 0 34.3813 0.977625 31.2692 2.60869L31.2132 2.63539L31.1725 2.61505C28.711 1.31706 25.4714 0.43224 22.0473 0.120773L21.933 0.109331L16.3484 0.189423L16.0978 0.208492C12.2626 0.715738 8.89011 2.03407 6.32638 4.03763C2.2077 7.32646 0.196706 11.7874 2.60148e-06 18.1871C-0.0010963 19.9924 0.343958 26.7772 4.82418 38.2799C7.03407 43.9524 8.19011 48.2786 8.2022 48.3231L8.73956 50.3457H12.1385V60.3724H17.3747V67.4688L45.0736 74.6071H45.0747V60.3724H50.311V50.3457H51.8495H53.6473L54.2044 48.3689C54.2198 48.3142 55.7385 42.943 57.5517 38.3956C59.7407 32.8998 62.033 26.3793 62.4363 19.7076C62.4604 19.3275 62.4517 18.9397 62.4352 18.538ZM40.1253 67.465L22.3275 62.8769V60.3737H40.1253V67.465ZM45.3615 54.6478H45.0758H17.3758H17.0912H17.0901V50.3457H45.3615V54.6478ZM53.0561 35.9992C51.8066 39.1317 50.7143 42.5349 50.0802 44.6186H12.3527C11.7747 42.7091 10.7692 39.6008 9.33737 35.928C5.07143 24.972 4.95165 18.8533 4.95055 18.2799C5.08901 13.8368 6.34286 10.9878 9.11978 8.76938C10.9802 7.31502 13.5429 6.33104 16.5385 5.91787L21.7681 5.84286C24.5484 6.10729 27.2253 6.82812 29.1308 7.83371L30.1473 8.3613L40.789 14.8411C41.1572 15.0661 41.5495 15.1716 41.9396 15.1716C42.8297 15.1716 43.6901 14.6148 44.1319 13.641C44.7692 12.2413 44.3055 10.5098 43.0945 9.7737L37.4769 6.35392C39.1967 5.95474 41.0528 5.72718 42.8451 5.72718H42.9604C47.056 5.72718 50.8231 6.83574 53.2769 8.75285C56.0758 10.9852 57.3297 13.8368 57.4714 18.2087C57.4725 18.4172 57.4824 18.6181 57.4901 18.8177C57.4967 18.9779 57.511 19.1291 57.4989 19.297C57.2209 23.8812 55.8923 28.8762 53.0561 35.9992Z" fill="#3B6A75"/>
<path d="M14.7156 28.5088C13.9882 28.5088 13.275 28.0893 12.8574 27.3252C11.4684 24.7966 11.3684 21.3108 12.5893 18.0003C13.9244 14.3822 16.4629 11.818 19.3794 11.1391C20.5783 10.8607 21.7332 11.7557 21.9706 13.1325C22.2101 14.5106 21.4387 15.8544 20.2464 16.1302C18.7739 16.4722 17.3915 17.9558 16.6376 20.0001C15.9958 21.7366 15.9728 23.4987 16.5739 24.5971C17.2255 25.7844 16.9211 27.3558 15.8959 28.1109C15.5277 28.3792 15.12 28.5088 14.7156 28.5088Z" fill="white"/>
</g>
<defs>
<clipPath id="clip0_186_237">
<rect width="63" height="114" fill="white"/>
</clipPath>
</defs>
</svg>
