<svg width="73" height="101" viewBox="0 0 73 101" fill="none" xmlns="http://www.w3.org/2000/svg">
<path d="M70.475 17.1277C70.2495 11.4155 67.9055 8.13656 64.3071 5.77023C60.6818 3.45076 55.5627 2.36186 50.4834 2.37191C45.7847 2.36186 41.1553 3.30349 38.0244 4.6434L36.7654 5.17111L35.5159 4.6434C33.0098 3.55563 29.5054 2.76016 25.7908 2.47566L19.3798 2.55711C15.596 2.96098 11.9859 4.01194 9.23548 5.78027C5.63482 8.13767 3.28605 11.4222 3.06056 17.121C3.04999 17.584 3.01124 18.0035 3.04177 18.3873C3.7147 26.3933 4.61897 29.0464 6.56611 33.4086C7.14273 34.6928 8.06227 35.949 8.77278 37.4518H21.0134C21.0134 37.4518 24.3839 37.511 25.2929 34.4819V30.5213C25.2929 30.5213 24.9065 27.0951 28.9229 27.0951H44.6127C48.6338 27.0951 48.2474 30.5213 48.2474 30.5213V34.4819C49.1529 37.511 52.5222 37.4518 52.5222 37.4518H63.9302C63.9302 37.4518 65.7317 37.4518 67.3805 33.5224C69.862 27.6005 70.0276 25.5889 70.4926 18.3873C70.5185 17.989 70.4832 17.5706 70.475 17.1277Z" fill="#F4F2E8"/>
<path d="M44.6223 45.6776L36.7703 46.6605C36.0493 46.8134 35.6359 46.9216 35.6359 46.9216L31.4856 45.6598C3.96033 40.6281 13.2368 67.0538 13.2368 67.0538C14.7048 70.3729 14.5791 72.689 14.4147 78.9992C14.2303 85.9097 16.1622 91.1868 18.0694 94.449C20.0118 97.7313 20.6589 98.2211 22.7681 98.2211C25.0006 98.2211 25.7722 95.9262 25.8709 94.7157C26.2983 90.2675 25.5479 87.8052 27.7064 80.3849C28.3277 78.3254 29.0887 75.7638 30.5978 73.4421C32.6353 70.3116 38.1479 67.8638 41.556 73.4421C42.9946 75.8107 43.9529 78.2942 44.4367 80.3849C45.4009 84.5854 45.7849 89.8792 46.1842 91.9644C47.1331 96.8778 49.2599 98.22 49.3774 98.22C51.301 98.22 52.1395 97.7313 54.0726 94.4479C55.9833 91.1857 57.4278 85.3541 57.7308 78.9981C58.022 72.6779 58.8958 70.2971 60.3638 66.9791C66.0208 48.1778 53.8165 45.363 44.6223 45.6776Z" fill="#F4F2E8"/>
<path d="M72.9846 17.4646L72.9693 17.0373C72.7356 11.1154 70.4339 6.9149 65.7023 3.80331C61.8691 1.35107 56.4904 0.00111565 50.5562 0.00111565L50.4106 0C45.6437 0 40.6291 0.927119 37.019 2.47343L36.7701 2.57719L36.5528 2.48571C33.7284 1.25959 29.9774 0.417259 25.9904 0.110451C25.9129 0.105988 25.8365 0.105988 25.7579 0.103757L19.3469 0.185201C19.267 0.186316 19.1825 0.190779 19.1014 0.198589C14.6763 0.671631 10.7809 1.92229 7.82145 3.82562C3.10512 6.91379 0.800975 11.1098 0.566098 17.0675L0.55318 17.4334C0.535564 17.8362 0.527344 18.2133 0.555529 18.5736C1.25311 26.8708 2.22198 29.7459 4.27129 34.3346C4.61538 35.1022 5.04168 35.8241 5.45272 36.5236C5.81678 37.1383 6.19141 37.772 6.4991 38.4202C6.90074 39.2737 7.7921 39.8193 8.77506 39.8193L21.0298 39.8204C22.9828 39.8204 26.587 38.8308 27.6968 35.1268C27.759 34.9159 27.7919 34.6972 27.7919 34.4786V30.518C27.7919 30.4332 27.7919 30.4019 27.7825 30.316C27.7708 30.1319 27.8248 29.7939 27.954 29.6667C28.0467 29.5719 28.3579 29.4614 28.9252 29.4614H44.6126C45.181 29.4614 45.4934 29.573 45.5874 29.6667C45.7142 29.795 45.7694 30.1319 45.7635 30.2647C45.753 30.3495 45.7483 30.4332 45.7483 30.518V34.4786C45.7483 34.6972 45.7811 34.9159 45.8434 35.1268C46.9497 38.8319 50.5527 39.8204 52.5069 39.8204L63.9289 39.8182C64.7486 39.8182 67.5848 39.4277 69.6999 34.3971C72.3716 28.03 72.5266 25.6358 72.9858 18.5357C73.0081 18.1921 72.9999 17.8339 72.9846 17.4646ZM65.061 32.6411C64.3717 34.2789 63.7598 34.8858 63.5132 35.0799H52.5162C52.1921 35.0732 51.1669 34.9817 50.7417 34.0814V30.5994C50.7782 29.9847 50.7605 28.0423 49.3055 26.5038C48.5374 25.6905 47.0965 24.7209 44.6126 24.7209H28.9228C26.4402 24.7209 25.0016 25.6905 24.2335 26.5027C22.7773 28.0423 22.7608 29.9847 22.7961 30.5994V34.0803C22.3698 34.984 21.3433 35.0732 21.0133 35.0799H10.317C10.1432 34.7742 9.97058 34.4841 9.80734 34.2075C9.44328 33.5927 9.10036 33.0104 8.86431 32.4838C6.99704 28.2989 6.17262 25.8355 5.5314 18.2077C5.51496 18.0269 5.5314 17.8339 5.53962 17.6264L5.55372 17.2092C5.72635 12.7922 7.25188 9.95844 10.6329 7.74384C12.8854 6.29571 15.9623 5.32285 19.536 4.9279L25.7015 4.85092C29.0332 5.11645 32.2264 5.82601 34.5012 6.81338L35.6697 7.3065L44.191 11.6018C45.4065 12.2177 46.9203 11.7759 47.5662 10.6178C47.7647 10.2641 47.8575 9.88258 47.8575 9.5066C47.8563 8.65869 47.3748 7.83867 46.5304 7.41137L42.9156 5.58949C45.2644 5.05285 47.8986 4.74605 50.4082 4.74605H50.5538C55.4334 4.74605 59.9384 5.83828 62.8849 7.72265C66.2812 9.95621 67.8044 12.7956 67.977 17.1679C67.9794 17.3308 67.9864 17.4892 67.9946 17.6465C68.0017 17.8518 68.0134 18.047 68.0017 18.2423C67.5543 25.1293 67.4345 26.9802 65.061 32.6411Z" fill="#3B6A75"/>
<path d="M44.533 43.3101C43.1566 43.357 42.0797 44.4559 42.129 45.7657C42.1795 47.0733 43.3421 48.0819 44.715 48.0495C48.9099 47.9045 54.4988 48.45 57.3079 51.8573C59.7307 54.7937 59.9644 59.6178 58.0079 66.1969C56.4882 69.641 55.5464 72.2729 55.241 78.8955C54.9686 84.6411 53.6544 90.2942 51.8952 93.2943C51.0261 94.7759 50.574 95.3995 50.2005 95.6617C49.7461 95.0247 49.0743 93.7706 48.6445 91.5438C48.5153 90.8677 48.3767 89.7163 48.2147 88.3842C47.9058 85.8427 47.5218 82.6809 46.8782 79.8795C46.2945 77.3536 45.173 74.6492 43.7203 72.255C41.3539 68.3859 38.1831 67.7689 36.5049 67.7466C36.4685 67.7466 36.4309 67.7466 36.3956 67.7466C32.9312 67.7466 29.9283 69.9712 28.4779 72.1992C26.815 74.7575 25.9988 77.4562 25.3458 79.624L25.3047 79.7567C23.6864 85.3161 23.6195 88.2804 23.5549 91.1432C23.5291 92.2511 23.5044 93.3009 23.3846 94.5382C23.3341 95.1697 22.9994 95.7721 22.7728 95.8525C21.8626 95.8525 21.7675 95.8525 20.256 93.2998C18.9266 91.0272 16.7247 86.154 16.9126 79.0617L16.9325 78.3332C17.0864 72.5183 17.158 69.8396 15.582 66.2282C14.5227 63.15 12.7188 54.5204 16.6519 50.2574C19.1944 47.4984 23.98 46.7285 30.8702 47.9658L34.2735 49.0012V54.8216L31.2976 51.9934L27.7674 55.3471L35.0052 62.2229C35.4726 62.6681 36.1079 62.9169 36.7703 62.9169C37.4326 62.9169 38.0668 62.6681 38.5354 62.2229L45.7672 55.3471L42.237 51.9945L39.2658 54.8194V46.6504C39.2658 46.6337 39.2658 46.6181 39.2658 46.6014V36.9564H34.2735V44.0197L32.2477 43.4039C32.1514 43.3749 32.0563 43.3503 31.9576 43.3336C23.1251 41.7192 16.7082 42.9944 12.895 47.1302C6.24915 54.3352 10.6789 67.2602 10.8704 67.808C10.8915 67.8637 10.9126 67.9195 10.9385 67.9742C12.1375 70.692 12.0882 72.5852 11.939 78.2093L11.9179 78.9412C11.7006 87.1559 14.3125 92.906 15.8956 95.6104C17.9449 99.0734 19.2144 100.592 22.7704 100.592C26.1374 100.592 28.1315 97.7279 28.3581 94.9343C28.4897 93.5676 28.5179 92.3861 28.5425 91.2437C28.6024 88.5516 28.6635 86.0089 30.1068 81.0398L30.1397 80.9293C30.7386 78.9434 31.4198 76.692 32.7198 74.6905C33.4362 73.5905 34.9241 72.4848 36.3921 72.4848C36.405 72.4848 36.4168 72.4848 36.4285 72.4859C37.536 72.5016 38.5354 73.2223 39.3927 74.628C40.5952 76.605 41.5195 78.8319 41.9963 80.8903C42.5858 83.4574 42.9534 86.4876 43.2482 88.922C43.4255 90.3946 43.5664 91.5583 43.7262 92.3894C44.7537 97.7156 47.4032 100.59 49.3761 100.59C52.7466 100.59 54.2205 99.0522 56.2545 95.6015C58.4295 91.8952 59.9127 85.7267 60.2286 79.103C60.5046 73.0627 61.3349 70.9095 62.6678 67.8972C62.7066 67.8113 62.7395 67.7232 62.7677 67.6317C65.2303 59.4405 64.716 53.1514 61.2386 48.9309C57.9891 44.9926 52.2146 43.0558 44.533 43.3101Z" fill="#3B6A75"/>
</svg>
