<svg width="86" height="100" viewBox="0 0 86 100" fill="none" xmlns="http://www.w3.org/2000/svg">
<path d="M81.4329 72.6459C81.4329 88.6567 64.5069 99.8757 41.2724 99.8757C18.0379 99.8757 0.157503 88.6567 0.157503 72.6459C0.157503 67.9116 -1.14977 60.8389 3.76814 59.4962C11.6535 57.3427 24.9063 58.2363 41.2712 58.2363C57.7917 58.2363 72.4351 58.2363 78.9715 58.8657C83.9421 59.3458 81.4329 68.0161 81.4329 72.6459Z" fill="#FF889C"/>
<path d="M19.9516 60.9384C12.0418 58.7838 3.93467 60.8431 3.59284 60.9315C2.44974 61.2302 1.78079 62.3385 2.09688 63.4112C2.41298 64.484 3.59407 65.1122 4.74207 64.8194C4.81313 64.801 12.0369 62.9805 18.7509 64.8113C18.9506 64.8665 19.154 64.8906 19.3525 64.8906C20.2848 64.8906 21.1449 64.3197 21.4157 63.4365C21.7489 62.3684 21.0935 61.2485 19.9516 60.9384Z" fill="#F16B72"/>
<path d="M79.6765 60.9384C71.7655 58.7826 63.6584 60.8431 63.3166 60.9316C62.1723 61.2302 61.5045 62.3385 61.8219 63.4113C62.1355 64.484 63.3154 65.1123 64.4634 64.8194C64.5369 64.801 71.7667 62.9806 78.4722 64.8113C78.6731 64.8665 78.8753 64.8906 79.075 64.8906C80.0061 64.8906 80.865 64.3198 81.1382 63.4365C81.4714 62.3684 80.8172 61.2486 79.6765 60.9384Z" fill="#F16B72"/>
<path d="M71.572 38.829C71.3735 33.8167 69.2833 30.9408 66.0844 28.8699C62.8695 26.8359 58.3191 25.878 53.8092 25.8883C49.6264 25.8768 45.511 26.7049 42.731 27.8799L41.6149 28.3416L40.5048 27.8799C38.2787 26.9266 35.1679 26.2271 31.8611 25.9756L26.1664 26.0479C22.807 26.4063 19.5945 27.3194 17.1527 28.8734C13.9537 30.9396 11.866 33.8213 11.6651 38.8198C11.6565 39.2229 11.6504 39.5905 11.6504 39.9293C11.7092 46.9894 13.4367 49.5369 15.5306 53.0997C17.6943 56.6062 20.1642 61.0855 20.0993 69.3757C20.0944 79.0028 21.8366 84.6525 23.7295 87.641C25.6568 90.6433 26.3061 91.0901 28.4012 91.0901C30.6212 91.0901 31.3821 88.9906 31.4764 87.8811C31.9089 83.8106 31.1615 77.4408 33.3068 70.6437C33.9243 68.7601 34.6803 66.4136 36.1787 64.2876C38.2076 61.4232 43.6805 59.1835 47.0633 64.2876C48.498 66.4595 49.3189 68.7612 49.9302 70.6437C51.5769 75.8179 52.0486 81.2321 51.6663 85.3623C51.1297 91.1085 54.7207 91.089 54.8383 91.089C56.7521 91.089 57.584 90.6422 59.5002 87.6399C61.4029 84.6502 63.1451 79.0017 63.139 69.3745C63.0814 61.066 65.5563 56.605 67.7175 53.0962C69.8089 49.5346 71.5205 46.9905 71.5904 39.9293C71.5904 39.5813 71.5793 39.2195 71.572 38.829Z" fill="#F4F2E8"/>
<path d="M73.732 39.0621L73.7235 38.7554C73.5201 33.5812 71.4826 29.9139 67.2912 27.1976C63.9023 25.0532 59.1449 23.8714 53.8203 23.8714C53.8178 23.8714 53.7284 23.8702 53.7259 23.8702C49.5051 23.8702 45.0663 24.6823 41.8685 26.0352L41.6223 26.1363L41.4042 26.0456C38.8962 24.9705 35.5723 24.2343 32.0401 23.9644C31.9702 23.9598 31.9028 23.9564 31.8367 23.9587L26.142 24.031C26.0697 24.0322 25.9999 24.0368 25.9276 24.0437C21.9935 24.4617 18.5421 25.5552 15.9349 27.2125C11.7644 29.907 9.72567 33.5697 9.51861 38.7749C9.50881 39.1941 9.50391 39.5766 9.50391 39.943C9.56394 47.1547 11.3111 50.1111 13.3326 53.5326L13.6732 54.1069C15.8712 57.6719 18.0129 61.7849 17.9516 69.3733C17.9455 80.1823 20.0859 85.832 21.8906 88.6792C23.8644 91.7573 25.0785 93.1057 28.4037 93.1057C31.5488 93.1057 33.4098 90.5582 33.6193 88.0797C33.7541 86.7899 33.7823 85.3059 33.808 83.7347C33.868 80.1696 33.9452 75.7317 35.3652 71.2351L35.3983 71.1283C35.9962 69.3079 36.6713 67.2439 37.9724 65.4016C38.7259 64.3358 40.3321 63.2573 41.9384 63.2573C43.2064 63.2573 44.3165 63.9602 45.2341 65.3465C46.4936 67.2577 47.2459 69.3033 47.8671 71.219C49.2981 75.7202 49.9168 80.9415 49.5223 85.1853C49.2601 87.9935 49.8249 90.1321 51.202 91.5403C52.6196 92.9932 54.3397 93.1046 54.8335 93.1046H54.8359C57.9822 93.1046 59.3887 91.7401 61.3466 88.6735C63.1488 85.8435 65.2942 80.1972 65.2868 69.363C65.2353 61.7941 67.3794 57.6754 69.6007 54.0689L69.9009 53.5613C71.9249 50.1363 73.6696 47.1777 73.7418 39.9304C73.7443 39.6524 73.7369 39.3653 73.732 39.0621ZM66.1383 51.6111L65.8565 52.0935C63.4698 55.9641 60.93 60.8155 60.9876 69.3814C60.9962 79.8056 58.9048 84.6513 57.6563 86.6095C56.0954 89.0548 55.7989 89.0778 54.8678 89.0778C54.8004 89.0697 54.5639 89.0284 54.3471 88.7883C54.118 88.5334 53.6083 87.7099 53.8117 85.5414C54.2564 80.7462 53.596 75.1069 51.9886 70.0601C51.316 67.9778 50.4204 65.5383 48.895 63.2263C47.1858 60.649 44.7183 59.2282 41.942 59.2282C38.6561 59.2282 35.783 61.2106 34.3887 63.1781C32.747 65.5073 31.9396 67.9709 31.2927 69.9487L31.2523 70.0751C29.6571 75.1218 29.5762 79.8618 29.51 83.6739C29.4831 85.2233 29.461 86.5625 29.3361 87.7236C29.3348 87.7374 29.1731 89.0778 28.4049 89.0778C27.2802 89.0778 27.1626 89.0778 25.5821 86.6141C24.3348 84.6467 22.2483 79.7941 22.252 69.3928C22.3206 60.804 19.7796 55.9595 17.4174 52.1291L17.0952 51.5801C15.2133 48.3997 13.8533 46.1003 13.8019 39.9304C13.8019 39.6053 13.808 39.2527 13.8166 38.8955C13.9709 34.9985 15.3346 32.4993 18.3608 30.5444C20.3579 29.273 23.1047 28.4162 26.3049 28.0647L31.7913 27.9981C34.7587 28.2301 37.6036 28.8561 39.6338 29.7267L40.7193 30.1781L48.2518 33.92C48.5715 34.082 48.917 34.1555 49.254 34.1555C50.0271 34.1555 50.772 33.765 51.1591 33.0839C51.7154 32.1007 51.3147 30.8798 50.266 30.3584L46.9041 28.6872C49.031 28.1934 51.4324 27.9085 53.721 27.9085H53.8938C58.2297 27.9085 62.2349 28.8699 64.8629 30.5307C67.905 32.5039 69.2687 35.0065 69.4206 38.8737L69.4279 39.1539C69.4341 39.4238 69.4414 39.6834 69.4414 39.9154C69.3802 46.1233 68.0202 48.425 66.1383 51.6111Z" fill="#3B6A75"/>
<path d="M56.3118 52.1141C55.9443 51.0425 53.2145 44.4625 41.7394 43.8514C31.7578 43.3254 27.6277 50.3809 26.8301 54.2469C18.6973 84.7925 27.9205 95.7071 28.3162 96.1574C28.7426 96.6386 29.3564 96.8878 29.9751 96.8878C30.4579 96.8878 30.943 96.7374 31.3437 96.4284C32.2589 95.7209 32.3863 94.4495 31.6291 93.5904C31.5556 93.5054 25.1001 85.8205 29.0366 63.9935C29.1199 63.8488 29.2057 63.7064 29.251 63.5398C29.3368 63.2102 31.4711 55.4793 38.3407 55.964C39.5402 56.0456 40.5559 55.2106 40.6416 54.0999C40.7262 52.9904 39.8379 52.0245 38.6531 51.9441C35.7776 51.7477 33.4106 52.4828 31.4858 53.6784C32.3839 51.495 34.9286 47.5234 41.4944 47.8783C50.4873 48.356 52.1449 53.1351 52.2013 53.3097C52.2233 53.3821 52.2515 53.4556 52.2785 53.5245C52.2858 53.5406 52.3728 53.7565 52.5113 54.178C50.5301 52.9008 47.9915 52.0969 44.773 52.2944C43.5882 52.3668 42.6902 53.3269 42.7673 54.4376C42.8433 55.5494 43.8541 56.4039 45.0523 56.3178C52.3765 55.8802 53.9472 63.0873 54.017 63.4273C54.0758 63.7133 54.2082 63.9613 54.3748 64.1853C55.0107 70.8664 55.0217 80.768 52.7012 94.1543C52.51 95.2535 53.3064 96.2895 54.4777 96.4675C55.6539 96.6478 56.7553 95.9001 56.9477 94.8009C61.8227 66.7064 56.8301 53.3855 56.3118 52.1141Z" fill="#F16B72"/>
<path d="M41.4037 16.09V7.37371C41.4037 4.41391 38.8491 2.01575 35.6918 2.01575C32.5321 2.01575 29.9763 4.41391 29.9763 7.37371V16.09H41.4037V16.09Z" fill="#9AE0FF"/>
<path d="M66.8637 9.86369L41.4031 7.54822V11.7312L66.8637 17.9437V9.86369Z" fill="#68C1E0"/>
<path d="M83.8478 9.86365H66.8618V17.9425H83.8478V9.86365Z" fill="#9AE0FF"/>
<path d="M83.8475 7.84801H66.9607L43.3415 5.70023C42.5305 2.43951 39.4123 0 35.6914 0C31.353 0 27.8245 3.30896 27.8245 7.37481V18.1068H33.4089L27.4214 52.4311C26.8774 53.9082 23.4886 63.5686 23.6368 74.7462C23.6515 75.8511 24.6108 76.7367 25.7858 76.7367C25.7956 76.7367 25.8054 76.7367 25.8152 76.7378C27.0024 76.724 27.9531 75.8098 27.9384 74.6968C27.7902 63.5571 31.5013 53.7117 31.5381 53.6141C31.5809 53.497 31.6152 53.3775 31.6361 53.2569L37.7669 18.1068H43.5523V14.3407L66.32 19.8974C66.3334 19.9009 66.3457 19.8986 66.3592 19.902C66.5209 19.9388 66.6863 19.9629 66.859 19.9629H83.8475C85.036 19.9629 86.0002 19.0601 86.0002 17.9449V9.86371C86.0002 8.74962 85.036 7.84801 83.8475 7.84801ZM39.2531 14.0743H35.8556H35.8544H32.1249V7.37366C32.1249 5.5314 33.7262 4.0314 35.6914 4.0314C37.6542 4.0314 39.2531 5.5314 39.2531 7.37366V7.54709V11.7312V14.0743V14.0743ZM43.5535 9.76838L64.7113 11.6945V15.3365L43.5535 10.1727V9.76838ZM81.6973 15.928H69.0142V11.8806H81.6973V15.928V15.928Z" fill="#3B6A75"/>
<path d="M63.3822 41.6775C63.2155 41.6775 63.0464 41.6557 62.8761 41.6144C61.8592 41.3514 61.2601 40.3682 61.537 39.4126C63.3576 33.1795 58.9482 31.4922 58.4385 31.3188C57.4522 30.9869 56.9278 29.9681 57.2709 29.0412C57.6176 28.1132 58.6897 27.6182 59.6809 27.9306C62.5833 28.8494 67.4841 32.6293 65.2248 40.359C64.992 41.155 64.2226 41.6775 63.3822 41.6775Z" fill="white"/>
</svg>
