<svg width="94" height="82" viewBox="0 0 94 82" fill="none" xmlns="http://www.w3.org/2000/svg">
<g clip-path="url(#clip0_186_246)">
<path d="M47.0853 71.5449C64.7751 71.5449 79.1154 57.9276 79.1154 41.1298C79.1154 24.3319 64.7751 10.7146 47.0853 10.7146C29.3956 10.7146 15.0552 24.3319 15.0552 41.1298C15.0552 57.9276 29.3956 71.5449 47.0853 71.5449Z" fill="#9AE0FF"/>
<path d="M66.7548 28.4544C66.6197 25.0324 65.2118 23.0638 63.0541 21.6485C60.883 20.2588 57.8146 19.6045 54.7689 19.6114C51.947 19.6045 49.1746 20.1687 47.2954 20.9698L46.5445 21.2901L45.7906 20.9698C44.2899 20.3224 42.191 19.8455 39.9611 19.6711L36.115 19.7221C33.85 19.963 31.6841 20.5937 30.0339 21.6554C27.8741 23.0638 26.4652 25.0372 26.3332 28.4514C26.3249 28.7276 26.3208 28.9793 26.3208 29.2105C26.361 34.0359 27.5276 35.7783 28.9416 38.2121C30.401 40.6067 32.0698 43.6693 32.0224 49.3361C32.0224 55.9157 33.1951 59.7784 34.472 61.8195C35.7715 63.8733 36.2109 64.1808 37.626 64.1808C39.1215 64.1808 39.6362 62.745 39.7022 61.9869C39.991 59.2035 39.4887 54.8501 40.9368 50.2038C41.3545 48.9179 41.8609 47.3136 42.8758 45.8573C44.2424 43.8985 47.939 42.3677 50.2215 45.8573C51.1889 47.3401 51.7407 48.9159 52.1553 50.2038C53.2631 53.7424 53.5838 57.4406 53.326 60.2632C52.9609 64.1916 55.3867 64.1808 55.4672 64.1808C56.7564 64.1808 57.3185 63.8733 58.614 61.8195C59.895 59.7794 61.0697 55.9157 61.0677 49.3361C61.0233 43.6566 62.6973 40.6057 64.1557 38.2092C65.5697 35.7783 66.7259 34.035 66.7703 29.2105C66.7661 28.9715 66.761 28.7217 66.7548 28.4544Z" fill="#F4F2E8"/>
<path d="M52.3795 65.0368C53.5718 66.2748 55.0406 66.3708 55.4614 66.3708H55.4634C57.9718 66.3708 59.1579 65.2171 60.5926 62.9419C61.8612 60.9214 63.3722 56.9196 63.3701 49.3224C63.332 44.3569 64.6635 41.7497 66.1704 39.2689L66.3643 38.9369C67.7319 36.5971 69.0253 34.3876 69.0738 29.2105C69.0738 28.9715 69.0676 28.7228 69.0573 28.3741C68.9119 24.6103 67.3771 21.8219 64.3438 19.8308C61.9148 18.2775 58.5339 17.4205 54.8219 17.4205H54.7146C51.8381 17.4205 48.8026 17.968 46.5449 18.8906C44.7946 18.1707 42.5328 17.6722 40.1492 17.4871C40.076 17.4822 39.9945 17.4803 39.9295 17.4813L36.0834 17.5312C36.0071 17.5322 35.9318 17.5361 35.8565 17.5439C33.0748 17.8397 30.6139 18.633 28.7264 19.8494C25.7096 21.818 24.1738 24.6054 24.0263 28.3849C24.0171 28.6846 24.0129 28.9588 24.0129 29.2272C24.0552 34.3631 25.3445 36.5687 26.708 38.9065L26.9431 39.3081C28.4273 41.7439 29.7578 44.3432 29.7156 49.3361C29.7156 56.9176 31.2245 60.9165 32.4952 62.9458C33.8412 65.076 34.8581 66.3698 37.6243 66.3698C40.2534 66.3698 41.8139 64.2572 41.9954 62.2005C42.0903 61.2877 42.1058 60.2593 42.1243 59.1703C42.1687 56.6581 42.2141 53.8081 43.1351 50.8483L43.1681 50.7484C43.5528 49.5624 43.9891 48.2196 44.7936 47.0659C45.169 46.5223 46.0086 45.9641 46.7553 45.9641C46.9575 45.9641 47.5722 45.9641 48.257 47.0071C49.0471 48.2167 49.5339 49.5643 49.9413 50.8248C50.8737 53.8081 51.2811 57.2653 51.0253 60.0684C50.8263 62.2279 51.2842 63.8978 52.3795 65.0368ZM46.7574 41.5872C44.5275 41.5872 42.2491 42.7889 40.9485 44.6497C39.7779 46.3294 39.191 48.1383 38.762 49.4586L38.7228 49.582C37.615 53.1401 37.5583 56.4456 37.5129 59.1007C37.4975 60.1408 37.4799 61.0389 37.4036 61.8048C37.3974 61.8597 37.3819 61.9243 37.3624 61.985C37.3613 61.985 37.3603 61.985 37.3593 61.985C37.2324 61.8548 36.9725 61.5228 36.4547 60.7001C35.6595 59.4327 34.3269 56.2703 34.3269 49.3538C34.3785 43.2795 32.6024 39.8526 30.9594 37.1554L30.7428 36.7822C29.4866 34.6354 28.6584 33.2143 28.6254 29.2105C28.6254 28.9999 28.6285 28.7698 28.6367 28.5318C28.7295 26.1215 29.5124 24.6514 31.3256 23.4663C32.5437 22.6828 34.2929 22.1324 36.2608 21.9101L39.8779 21.8621C41.7706 22.0178 43.5734 22.4164 44.8452 22.9669L45.5341 23.2607L50.6158 25.8208C50.9603 25.9942 51.3285 26.0764 51.6937 26.0764C52.5198 26.0764 53.3191 25.6543 53.7348 24.9129C54.3289 23.8434 53.9019 22.5193 52.7756 21.9522L52.6952 21.9111C53.3666 21.8405 54.0463 21.7994 54.7115 21.7994H54.8188C57.583 21.7994 60.113 22.4057 61.7447 23.4487C63.0803 24.3263 64.3355 25.5495 64.45 28.5494C64.4541 28.7815 64.4603 29.0019 64.4603 29.1919C64.4242 33.2349 63.594 34.656 62.3326 36.8087L62.1541 37.1152C60.4884 39.8585 58.7113 43.2933 58.7598 49.3371C58.7618 56.2693 57.4262 59.4308 56.6341 60.6952C56.1204 61.51 55.8461 61.8313 55.7213 61.9576C55.645 61.7657 55.5398 61.322 55.6181 60.4533C55.9265 57.0783 55.4676 53.1156 54.3547 49.5653C53.8534 48.0071 53.2428 46.3402 52.1753 44.7036C50.8634 42.6929 48.9367 41.5872 46.7574 41.5872Z" fill="#3B6A75"/>
<path d="M16.3477 31.6316H9.31973C13.7413 15.7585 29.1711 4.37888 46.578 4.37888C64.4831 4.37888 80.3007 16.4225 84.188 33.0125L88.6901 32.0606C84.3355 13.4853 66.6264 0 46.578 0C26.7411 0 9.19803 13.2052 4.61242 31.4778V20.4841H0V33.8215C0 35.0301 1.03243 36.0105 2.30621 36.0105H16.3477V31.6316Z" fill="#3B6A75"/>
<path d="M90.7819 45.9984H76.7363V50.3773H83.8303C79.4107 66.2465 63.983 77.6202 46.5792 77.6202C28.671 77.6202 12.8493 65.5795 8.96093 48.9934L4.46094 49.9454C8.81654 68.5187 26.5288 82.0001 46.5802 82.0001C66.3274 82.0001 83.7983 68.9153 88.4777 50.77V61.5277H93.0871V48.1874C93.086 46.9778 92.0546 45.9984 90.7819 45.9984Z" fill="#3B6A75"/>
<path d="M34.6717 32.0194C34.5212 32.0194 34.3654 32.0018 34.2107 31.9695C33.1092 31.7286 32.4202 30.6835 32.6739 29.6356C33.1917 27.4897 34.6717 25.8649 36.6283 25.292C37.7061 24.9766 38.8551 25.5515 39.1883 26.5779C39.5224 27.6063 38.916 28.6944 37.834 29.0107C37.2915 29.1694 36.8552 29.7277 36.6675 30.5063C36.4499 31.4093 35.6052 32.0194 34.6717 32.0194Z" fill="white"/>
</g>
<defs>
<clipPath id="clip0_186_246">
<rect width="94" height="82" fill="white"/>
</clipPath>
</defs>
</svg>
