<svg width="49" height="40" viewBox="0 0 49 40" fill="none" xmlns="http://www.w3.org/2000/svg">
<path d="M14.8949 30.78C11.0029 30.711 7.67478 28.2989 6.25328 24.8878C6.6258 24.9276 7.00396 24.9478 7.3869 24.9478C8.34636 24.9478 9.27737 24.8205 10.1658 24.5792L10.1336 23.6065C5.98272 22.7696 2.80398 19.2287 2.49495 14.8904C3.72446 15.4503 5.0807 15.7818 6.50727 15.8287L8.25013 15.8859L6.80243 14.9138C4.24033 13.1934 2.55228 10.2534 2.55228 6.92316C2.55228 5.42586 2.89525 4.00696 3.50516 2.73971C8.54139 8.62825 15.8687 12.4811 24.1079 12.8978L24.7668 12.9311L24.6207 12.2877C24.4604 11.5814 24.3742 10.8512 24.3742 10.1008C24.3742 4.79544 28.6542 0.5 33.9262 0.5C36.6737 0.5 39.1545 1.66506 40.8985 3.52801L41.088 3.73046L41.3601 3.67688C43.2317 3.30835 45.0131 2.68554 46.6671 1.84696C45.852 3.5309 44.5601 4.93994 42.9696 5.89643L43.287 6.82133C44.7751 6.64223 46.2118 6.30806 47.5841 5.83248C46.4616 7.24386 45.1485 8.50172 43.6888 9.56184L43.4711 9.71997L43.4831 9.98878C43.5022 10.4156 43.5128 10.846 43.5128 11.2713C43.5128 24.4019 33.567 39.5 15.4083 39.5C10.5722 39.5 6.027 38.2668 2.05352 36.1014C2.16871 36.1033 2.28411 36.1042 2.39972 36.1042C7.22488 36.1042 11.6684 34.449 15.1953 31.6728L16.2979 30.8049L14.8949 30.78Z" fill="#1D9BF0" stroke="black"/>
</svg>
