<svg width="1427" height="197" viewBox="0 0 1427 197" fill="none" xmlns="http://www.w3.org/2000/svg">
<rect x="-3" width="1434" height="197" fill="#A6E3E9"/>
<path d="M151.719 45.8172L121.193 36.2832C116.349 34.7701 111.298 34 106.217 34C101.136 34 96.0858 34.7701 91.2412 36.2832L60.715 45.8172C54.3364 47.8095 50 53.6614 50 60.2772V112.691C50 122.327 54.6303 131.39 62.4741 137.107L92.3796 158.901C96.3886 161.822 101.238 163.398 106.217 163.398C111.197 163.398 116.046 161.822 120.055 158.901L149.96 137.107C157.804 131.39 162.434 122.327 162.434 112.691V60.2772C162.434 53.6614 158.098 47.8095 151.719 45.8172ZM129.707 91.5508L104.41 116.57C101.417 119.531 96.5627 119.531 93.5691 116.57L82.7276 105.848C79.7338 102.887 79.7338 98.0859 82.7276 95.1252C85.7214 92.1642 90.5753 92.1642 93.5688 95.1252L98.9894 100.486L118.865 80.8285C121.859 77.8675 126.713 77.8675 129.707 80.8285C132.701 83.7892 132.701 88.5898 129.707 91.5508Z" fill="#00A307" stroke="white" stroke-opacity="0.7" stroke-width="6"/>
<path d="M249.015 105.01H240.675L239.295 109H234.885L242.415 88.03H247.305L254.835 109H250.395L249.015 105.01ZM247.875 101.65L244.845 92.89L241.815 101.65H247.875ZM261.85 86.8V109H257.65V86.8H261.85ZM270.2 86.8V109H266V86.8H270.2ZM288.878 109.27C287.278 109.27 285.838 108.92 284.558 108.22C283.278 107.5 282.268 106.49 281.528 105.19C280.808 103.89 280.448 102.39 280.448 100.69C280.448 98.99 280.818 97.49 281.558 96.19C282.318 94.89 283.348 93.89 284.648 93.19C285.948 92.47 287.398 92.11 288.998 92.11C290.598 92.11 292.048 92.47 293.348 93.19C294.648 93.89 295.668 94.89 296.408 96.19C297.168 97.49 297.548 98.99 297.548 100.69C297.548 102.39 297.158 103.89 296.378 105.19C295.618 106.49 294.578 107.5 293.258 108.22C291.958 108.92 290.498 109.27 288.878 109.27ZM288.878 105.61C289.638 105.61 290.348 105.43 291.008 105.07C291.688 104.69 292.228 104.13 292.628 103.39C293.028 102.65 293.228 101.75 293.228 100.69C293.228 99.11 292.808 97.9 291.968 97.06C291.148 96.2 290.138 95.77 288.938 95.77C287.738 95.77 286.728 96.2 285.908 97.06C285.108 97.9 284.708 99.11 284.708 100.69C284.708 102.27 285.098 103.49 285.878 104.35C286.678 105.19 287.678 105.61 288.878 105.61ZM304.829 94.78C305.369 94.02 306.109 93.39 307.049 92.89C308.009 92.37 309.099 92.11 310.319 92.11C311.739 92.11 313.019 92.46 314.159 93.16C315.319 93.86 316.229 94.86 316.889 96.16C317.569 97.44 317.909 98.93 317.909 100.63C317.909 102.33 317.569 103.84 316.889 105.16C316.229 106.46 315.319 107.47 314.159 108.19C313.019 108.91 311.739 109.27 310.319 109.27C309.099 109.27 308.019 109.02 307.079 108.52C306.159 108.02 305.409 107.39 304.829 106.63V116.92H300.629V92.38H304.829V94.78ZM313.619 100.63C313.619 99.63 313.409 98.77 312.989 98.05C312.589 97.31 312.049 96.75 311.369 96.37C310.709 95.99 309.989 95.8 309.209 95.8C308.449 95.8 307.729 96 307.049 96.4C306.389 96.78 305.849 97.34 305.429 98.08C305.029 98.82 304.829 99.69 304.829 100.69C304.829 101.69 305.029 102.56 305.429 103.3C305.849 104.04 306.389 104.61 307.049 105.01C307.729 105.39 308.449 105.58 309.209 105.58C309.989 105.58 310.709 105.38 311.369 104.98C312.049 104.58 312.589 104.01 312.989 103.27C313.409 102.53 313.619 101.65 313.619 100.63ZM336.411 100.33C336.411 100.93 336.371 101.47 336.291 101.95H324.141C324.241 103.15 324.661 104.09 325.401 104.77C326.141 105.45 327.051 105.79 328.131 105.79C329.691 105.79 330.801 105.12 331.461 103.78H335.991C335.511 105.38 334.591 106.7 333.231 107.74C331.871 108.76 330.201 109.27 328.221 109.27C326.621 109.27 325.181 108.92 323.901 108.22C322.641 107.5 321.651 106.49 320.931 105.19C320.231 103.89 319.881 102.39 319.881 100.69C319.881 98.97 320.231 97.46 320.931 96.16C321.631 94.86 322.611 93.86 323.871 93.16C325.131 92.46 326.581 92.11 328.221 92.11C329.801 92.11 331.211 92.45 332.451 93.13C333.711 93.81 334.681 94.78 335.361 96.04C336.061 97.28 336.411 98.71 336.411 100.33ZM332.061 99.13C332.041 98.05 331.651 97.19 330.891 96.55C330.131 95.89 329.201 95.56 328.101 95.56C327.061 95.56 326.181 95.88 325.461 96.52C324.761 97.14 324.331 98.01 324.171 99.13H332.061ZM343.676 94.96C344.216 94.08 344.916 93.39 345.776 92.89C346.656 92.39 347.656 92.14 348.776 92.14V96.55H347.666C346.346 96.55 345.346 96.86 344.666 97.48C344.006 98.1 343.676 99.18 343.676 100.72V109H339.476V92.38H343.676V94.96ZM350.525 100.63C350.525 98.95 350.855 97.46 351.515 96.16C352.195 94.86 353.105 93.86 354.245 93.16C355.405 92.46 356.695 92.11 358.115 92.11C359.355 92.11 360.435 92.36 361.355 92.86C362.295 93.36 363.045 93.99 363.605 94.75V92.38H367.835V109H363.605V106.57C363.065 107.35 362.315 108 361.355 108.52C360.415 109.02 359.325 109.27 358.085 109.27C356.685 109.27 355.405 108.91 354.245 108.19C353.105 107.47 352.195 106.46 351.515 105.16C350.855 103.84 350.525 102.33 350.525 100.63ZM363.605 100.69C363.605 99.67 363.405 98.8 363.005 98.08C362.605 97.34 362.065 96.78 361.385 96.4C360.705 96 359.975 95.8 359.195 95.8C358.415 95.8 357.695 95.99 357.035 96.37C356.375 96.75 355.835 97.31 355.415 98.05C355.015 98.77 354.815 99.63 354.815 100.63C354.815 101.63 355.015 102.51 355.415 103.27C355.835 104.01 356.375 104.58 357.035 104.98C357.715 105.38 358.435 105.58 359.195 105.58C359.975 105.58 360.705 105.39 361.385 105.01C362.065 104.61 362.605 104.05 363.005 103.33C363.405 102.59 363.605 101.71 363.605 100.69ZM376.827 95.83V103.87C376.827 104.43 376.957 104.84 377.217 105.1C377.497 105.34 377.957 105.46 378.597 105.46H380.547V109H377.907C374.367 109 372.597 107.28 372.597 103.84V95.83H370.617V92.38H372.597V88.27H376.827V92.38H380.547V95.83H376.827ZM385.698 90.4C384.958 90.4 384.338 90.17 383.838 89.71C383.358 89.23 383.118 88.64 383.118 87.94C383.118 87.24 383.358 86.66 383.838 86.2C384.338 85.72 384.958 85.48 385.698 85.48C386.438 85.48 387.048 85.72 387.528 86.2C388.028 86.66 388.278 87.24 388.278 87.94C388.278 88.64 388.028 89.23 387.528 89.71C387.048 90.17 386.438 90.4 385.698 90.4ZM387.768 92.38V109H383.568V92.38H387.768ZM399.298 109.27C397.698 109.27 396.258 108.92 394.978 108.22C393.698 107.5 392.688 106.49 391.948 105.19C391.228 103.89 390.868 102.39 390.868 100.69C390.868 98.99 391.238 97.49 391.978 96.19C392.738 94.89 393.768 93.89 395.068 93.19C396.368 92.47 397.818 92.11 399.418 92.11C401.018 92.11 402.468 92.47 403.768 93.19C405.068 93.89 406.088 94.89 406.828 96.19C407.588 97.49 407.968 98.99 407.968 100.69C407.968 102.39 407.578 103.89 406.798 105.19C406.038 106.49 404.998 107.5 403.678 108.22C402.378 108.92 400.918 109.27 399.298 109.27ZM399.298 105.61C400.058 105.61 400.768 105.43 401.428 105.07C402.108 104.69 402.648 104.13 403.048 103.39C403.448 102.65 403.648 101.75 403.648 100.69C403.648 99.11 403.228 97.9 402.388 97.06C401.568 96.2 400.558 95.77 399.358 95.77C398.158 95.77 397.148 96.2 396.328 97.06C395.528 97.9 395.128 99.11 395.128 100.69C395.128 102.27 395.518 103.49 396.298 104.35C397.098 105.19 398.098 105.61 399.298 105.61ZM420.259 92.14C422.239 92.14 423.839 92.77 425.059 94.03C426.279 95.27 426.889 97.01 426.889 99.25V109H422.689V99.82C422.689 98.5 422.359 97.49 421.699 96.79C421.039 96.07 420.139 95.71 418.999 95.71C417.839 95.71 416.919 96.07 416.239 96.79C415.579 97.49 415.249 98.5 415.249 99.82V109H411.049V92.38H415.249V94.45C415.809 93.73 416.519 93.17 417.379 92.77C418.259 92.35 419.219 92.14 420.259 92.14ZM437.243 109.27C435.883 109.27 434.663 109.03 433.583 108.55C432.503 108.05 431.643 107.38 431.003 106.54C430.383 105.7 430.043 104.77 429.983 103.75H434.213C434.293 104.39 434.603 104.92 435.143 105.34C435.703 105.76 436.393 105.97 437.213 105.97C438.013 105.97 438.633 105.81 439.073 105.49C439.533 105.17 439.763 104.76 439.763 104.26C439.763 103.72 439.483 103.32 438.923 103.06C438.383 102.78 437.513 102.48 436.312 102.16C435.073 101.86 434.053 101.55 433.253 101.23C432.473 100.91 431.793 100.42 431.213 99.76C430.653 99.1 430.373 98.21 430.373 97.09C430.373 96.17 430.633 95.33 431.153 94.57C431.693 93.81 432.453 93.21 433.433 92.77C434.433 92.33 435.603 92.11 436.943 92.11C438.923 92.11 440.503 92.61 441.683 93.61C442.863 94.59 443.513 95.92 443.633 97.6H439.613C439.553 96.94 439.273 96.42 438.773 96.04C438.293 95.64 437.643 95.44 436.823 95.44C436.063 95.44 435.473 95.58 435.053 95.86C434.653 96.14 434.453 96.53 434.453 97.03C434.453 97.59 434.733 98.02 435.293 98.32C435.853 98.6 436.723 98.89 437.903 99.19C439.103 99.49 440.093 99.8 440.873 100.12C441.653 100.44 442.323 100.94 442.883 101.62C443.463 102.28 443.763 103.16 443.783 104.26C443.783 105.22 443.513 106.08 442.973 106.84C442.453 107.6 441.693 108.2 440.693 108.64C439.713 109.06 438.563 109.27 437.243 109.27ZM453.299 100.63C453.299 98.95 453.629 97.46 454.289 96.16C454.969 94.86 455.879 93.86 457.019 93.16C458.179 92.46 459.469 92.11 460.889 92.11C462.129 92.11 463.209 92.36 464.129 92.86C465.069 93.36 465.819 93.99 466.379 94.75V92.38H470.609V109H466.379V106.57C465.839 107.35 465.089 108 464.129 108.52C463.189 109.02 462.099 109.27 460.859 109.27C459.459 109.27 458.179 108.91 457.019 108.19C455.879 107.47 454.969 106.46 454.289 105.16C453.629 103.84 453.299 102.33 453.299 100.63ZM466.379 100.69C466.379 99.67 466.179 98.8 465.779 98.08C465.379 97.34 464.839 96.78 464.159 96.4C463.479 96 462.749 95.8 461.969 95.8C461.189 95.8 460.469 95.99 459.809 96.37C459.149 96.75 458.609 97.31 458.189 98.05C457.789 98.77 457.589 99.63 457.589 100.63C457.589 101.63 457.789 102.51 458.189 103.27C458.609 104.01 459.149 104.58 459.809 104.98C460.489 105.38 461.209 105.58 461.969 105.58C462.749 105.58 463.479 105.39 464.159 105.01C464.839 104.61 465.379 104.05 465.779 103.33C466.179 102.59 466.379 101.71 466.379 100.69ZM478.911 94.96C479.451 94.08 480.151 93.39 481.011 92.89C481.891 92.39 482.891 92.14 484.011 92.14V96.55H482.901C481.581 96.55 480.581 96.86 479.901 97.48C479.241 98.1 478.911 99.18 478.911 100.72V109H474.711V92.38H478.911V94.96ZM502.29 100.33C502.29 100.93 502.25 101.47 502.17 101.95H490.02C490.12 103.15 490.54 104.09 491.28 104.77C492.02 105.45 492.93 105.79 494.01 105.79C495.57 105.79 496.68 105.12 497.34 103.78H501.87C501.39 105.38 500.47 106.7 499.11 107.74C497.75 108.76 496.08 109.27 494.1 109.27C492.5 109.27 491.06 108.92 489.78 108.22C488.52 107.5 487.53 106.49 486.81 105.19C486.11 103.89 485.76 102.39 485.76 100.69C485.76 98.97 486.11 97.46 486.81 96.16C487.51 94.86 488.49 93.86 489.75 93.16C491.01 92.46 492.46 92.11 494.1 92.11C495.68 92.11 497.09 92.45 498.33 93.13C499.59 93.81 500.56 94.78 501.24 96.04C501.94 97.28 502.29 98.71 502.29 100.33ZM497.94 99.13C497.92 98.05 497.53 97.19 496.77 96.55C496.01 95.89 495.08 95.56 493.98 95.56C492.94 95.56 492.06 95.88 491.34 96.52C490.64 97.14 490.21 98.01 490.05 99.13H497.94ZM583.992 100.63C583.992 98.95 584.322 97.46 584.982 96.16C585.662 94.86 586.572 93.86 587.712 93.16C588.872 92.46 590.162 92.11 591.582 92.11C592.822 92.11 593.902 92.36 594.822 92.86C595.762 93.36 596.512 93.99 597.072 94.75V92.38H601.302V109H597.072V106.57C596.532 107.35 595.782 108 594.822 108.52C593.882 109.02 592.792 109.27 591.552 109.27C590.152 109.27 588.872 108.91 587.712 108.19C586.572 107.47 585.662 106.46 584.982 105.16C584.322 103.84 583.992 102.33 583.992 100.63ZM597.072 100.69C597.072 99.67 596.872 98.8 596.472 98.08C596.072 97.34 595.532 96.78 594.852 96.4C594.172 96 593.442 95.8 592.662 95.8C591.882 95.8 591.162 95.99 590.502 96.37C589.842 96.75 589.302 97.31 588.882 98.05C588.482 98.77 588.282 99.63 588.282 100.63C588.282 101.63 588.482 102.51 588.882 103.27C589.302 104.01 589.842 104.58 590.502 104.98C591.182 105.38 591.902 105.58 592.662 105.58C593.442 105.58 594.172 105.39 594.852 105.01C595.532 104.61 596.072 104.05 596.472 103.33C596.872 102.59 597.072 101.71 597.072 100.69ZM614.614 92.14C616.594 92.14 618.194 92.77 619.414 94.03C620.634 95.27 621.244 97.01 621.244 99.25V109H617.044V99.82C617.044 98.5 616.714 97.49 616.054 96.79C615.394 96.07 614.494 95.71 613.354 95.71C612.194 95.71 611.274 96.07 610.594 96.79C609.934 97.49 609.604 98.5 609.604 99.82V109H605.404V92.38H609.604V94.45C610.164 93.73 610.874 93.17 611.734 92.77C612.614 92.35 613.574 92.14 614.614 92.14ZM624.158 100.63C624.158 98.95 624.488 97.46 625.148 96.16C625.828 94.86 626.748 93.86 627.908 93.16C629.068 92.46 630.358 92.11 631.778 92.11C632.858 92.11 633.888 92.35 634.868 92.83C635.848 93.29 636.628 93.91 637.208 94.69V86.8H641.468V109H637.208V106.54C636.688 107.36 635.958 108.02 635.018 108.52C634.078 109.02 632.988 109.27 631.748 109.27C630.348 109.27 629.068 108.91 627.908 108.19C626.748 107.47 625.828 106.46 625.148 105.16C624.488 103.84 624.158 102.33 624.158 100.63ZM637.238 100.69C637.238 99.67 637.038 98.8 636.638 98.08C636.238 97.34 635.698 96.78 635.018 96.4C634.338 96 633.608 95.8 632.828 95.8C632.048 95.8 631.328 95.99 630.668 96.37C630.008 96.75 629.468 97.31 629.048 98.05C628.648 98.77 628.448 99.63 628.448 100.63C628.448 101.63 628.648 102.51 629.048 103.27C629.468 104.01 630.008 104.58 630.668 104.98C631.348 105.38 632.068 105.58 632.828 105.58C633.608 105.58 634.338 105.39 635.018 105.01C635.698 104.61 636.238 104.05 636.638 103.33C637.038 102.59 637.238 101.71 637.238 100.69ZM651.638 100.63C651.638 98.95 651.968 97.46 652.628 96.16C653.308 94.86 654.228 93.86 655.388 93.16C656.548 92.46 657.838 92.11 659.258 92.11C660.338 92.11 661.368 92.35 662.348 92.83C663.328 93.29 664.108 93.91 664.688 94.69V86.8H668.948V109H664.688V106.54C664.168 107.36 663.438 108.02 662.498 108.52C661.558 109.02 660.468 109.27 659.228 109.27C657.828 109.27 656.548 108.91 655.388 108.19C654.228 107.47 653.308 106.46 652.628 105.16C651.968 103.84 651.638 102.33 651.638 100.63ZM664.718 100.69C664.718 99.67 664.518 98.8 664.118 98.08C663.718 97.34 663.178 96.78 662.498 96.4C661.818 96 661.088 95.8 660.308 95.8C659.528 95.8 658.808 95.99 658.148 96.37C657.488 96.75 656.948 97.31 656.528 98.05C656.128 98.77 655.928 99.63 655.928 100.63C655.928 101.63 656.128 102.51 656.528 103.27C656.948 104.01 657.488 104.58 658.148 104.98C658.828 105.38 659.548 105.58 660.308 105.58C661.088 105.58 661.818 105.39 662.498 105.01C663.178 104.61 663.718 104.05 664.118 103.33C664.518 102.59 664.718 101.71 664.718 100.69ZM680.43 109.27C678.83 109.27 677.39 108.92 676.11 108.22C674.83 107.5 673.82 106.49 673.08 105.19C672.36 103.89 672 102.39 672 100.69C672 98.99 672.37 97.49 673.11 96.19C673.87 94.89 674.9 93.89 676.2 93.19C677.5 92.47 678.95 92.11 680.55 92.11C682.15 92.11 683.6 92.47 684.9 93.19C686.2 93.89 687.22 94.89 687.96 96.19C688.72 97.49 689.1 98.99 689.1 100.69C689.1 102.39 688.71 103.89 687.93 105.19C687.17 106.49 686.13 107.5 684.81 108.22C683.51 108.92 682.05 109.27 680.43 109.27ZM680.43 105.61C681.19 105.61 681.9 105.43 682.56 105.07C683.24 104.69 683.78 104.13 684.18 103.39C684.58 102.65 684.78 101.75 684.78 100.69C684.78 99.11 684.36 97.9 683.52 97.06C682.7 96.2 681.69 95.77 680.49 95.77C679.29 95.77 678.28 96.2 677.46 97.06C676.66 97.9 676.26 99.11 676.26 100.69C676.26 102.27 676.65 103.49 677.43 104.35C678.23 105.19 679.23 105.61 680.43 105.61ZM701.391 92.14C703.371 92.14 704.971 92.77 706.191 94.03C707.411 95.27 708.021 97.01 708.021 99.25V109H703.821V99.82C703.821 98.5 703.491 97.49 702.831 96.79C702.171 96.07 701.271 95.71 700.131 95.71C698.971 95.71 698.051 96.07 697.371 96.79C696.711 97.49 696.381 98.5 696.381 99.82V109H692.181V92.38H696.381V94.45C696.941 93.73 697.651 93.17 698.511 92.77C699.391 92.35 700.351 92.14 701.391 92.14ZM727.465 100.33C727.465 100.93 727.425 101.47 727.345 101.95H715.195C715.295 103.15 715.715 104.09 716.455 104.77C717.195 105.45 718.105 105.79 719.185 105.79C720.745 105.79 721.855 105.12 722.515 103.78H727.045C726.565 105.38 725.645 106.7 724.285 107.74C722.925 108.76 721.255 109.27 719.275 109.27C717.675 109.27 716.235 108.92 714.955 108.22C713.695 107.5 712.705 106.49 711.985 105.19C711.285 103.89 710.935 102.39 710.935 100.69C710.935 98.97 711.285 97.46 711.985 96.16C712.685 94.86 713.665 93.86 714.925 93.16C716.185 92.46 717.635 92.11 719.275 92.11C720.855 92.11 722.265 92.45 723.505 93.13C724.765 93.81 725.735 94.78 726.415 96.04C727.115 97.28 727.465 98.71 727.465 100.33ZM723.115 99.13C723.095 98.05 722.705 97.19 721.945 96.55C721.185 95.89 720.255 95.56 719.155 95.56C718.115 95.56 717.235 95.88 716.515 96.52C715.815 97.14 715.385 98.01 715.225 99.13H723.115ZM753.369 92.38V109H749.139V106.9C748.599 107.62 747.889 108.19 747.009 108.61C746.149 109.01 745.209 109.21 744.189 109.21C742.889 109.21 741.739 108.94 740.739 108.4C739.739 107.84 738.949 107.03 738.369 105.97C737.809 104.89 737.529 103.61 737.529 102.13V92.38H741.729V101.53C741.729 102.85 742.059 103.87 742.719 104.59C743.379 105.29 744.279 105.64 745.419 105.64C746.579 105.64 747.489 105.29 748.149 104.59C748.809 103.87 749.139 102.85 749.139 101.53V92.38H753.369ZM766.723 92.14C768.703 92.14 770.303 92.77 771.523 94.03C772.743 95.27 773.353 97.01 773.353 99.25V109H769.153V99.82C769.153 98.5 768.823 97.49 768.163 96.79C767.503 96.07 766.603 95.71 765.463 95.71C764.303 95.71 763.383 96.07 762.703 96.79C762.043 97.49 761.713 98.5 761.713 99.82V109H757.513V92.38H761.713V94.45C762.273 93.73 762.983 93.17 763.843 92.77C764.723 92.35 765.683 92.14 766.723 92.14ZM776.267 100.63C776.267 98.95 776.597 97.46 777.257 96.16C777.937 94.86 778.857 93.86 780.017 93.16C781.177 92.46 782.467 92.11 783.887 92.11C784.967 92.11 785.997 92.35 786.977 92.83C787.957 93.29 788.737 93.91 789.317 94.69V86.8H793.577V109H789.317V106.54C788.797 107.36 788.067 108.02 787.127 108.52C786.187 109.02 785.097 109.27 783.857 109.27C782.457 109.27 781.177 108.91 780.017 108.19C778.857 107.47 777.937 106.46 777.257 105.16C776.597 103.84 776.267 102.33 776.267 100.63ZM789.347 100.69C789.347 99.67 789.147 98.8 788.747 98.08C788.347 97.34 787.807 96.78 787.127 96.4C786.447 96 785.717 95.8 784.937 95.8C784.157 95.8 783.437 95.99 782.777 96.37C782.117 96.75 781.577 97.31 781.157 98.05C780.757 98.77 780.557 99.63 780.557 100.63C780.557 101.63 780.757 102.51 781.157 103.27C781.577 104.01 782.117 104.58 782.777 104.98C783.457 105.38 784.177 105.58 784.937 105.58C785.717 105.58 786.447 105.39 787.127 105.01C787.807 104.61 788.347 104.05 788.747 103.33C789.147 102.59 789.347 101.71 789.347 100.69ZM813.129 100.33C813.129 100.93 813.089 101.47 813.009 101.95H800.859C800.959 103.15 801.379 104.09 802.119 104.77C802.859 105.45 803.769 105.79 804.849 105.79C806.409 105.79 807.519 105.12 808.179 103.78H812.709C812.229 105.38 811.309 106.7 809.949 107.74C808.589 108.76 806.919 109.27 804.939 109.27C803.339 109.27 801.899 108.92 800.619 108.22C799.359 107.5 798.369 106.49 797.649 105.19C796.949 103.89 796.599 102.39 796.599 100.69C796.599 98.97 796.949 97.46 797.649 96.16C798.349 94.86 799.329 93.86 800.589 93.16C801.849 92.46 803.299 92.11 804.939 92.11C806.519 92.11 807.929 92.45 809.169 93.13C810.429 93.81 811.399 94.78 812.079 96.04C812.779 97.28 813.129 98.71 813.129 100.33ZM808.779 99.13C808.759 98.05 808.369 97.19 807.609 96.55C806.849 95.89 805.919 95.56 804.819 95.56C803.779 95.56 802.899 95.88 802.179 96.52C801.479 97.14 801.049 98.01 800.889 99.13H808.779ZM820.395 94.96C820.935 94.08 821.635 93.39 822.495 92.89C823.375 92.39 824.375 92.14 825.495 92.14V96.55H824.385C823.065 96.55 822.065 96.86 821.385 97.48C820.725 98.1 820.395 99.18 820.395 100.72V109H816.195V92.38H820.395V94.96ZM840.362 95.83V103.87C840.362 104.43 840.492 104.84 840.752 105.1C841.032 105.34 841.492 105.46 842.132 105.46H844.082V109H841.442C837.902 109 836.132 107.28 836.132 103.84V95.83H834.152V92.38H836.132V88.27H840.362V92.38H844.082V95.83H840.362ZM856.463 92.14C857.723 92.14 858.843 92.42 859.823 92.98C860.803 93.52 861.563 94.33 862.103 95.41C862.663 96.47 862.943 97.75 862.943 99.25V109H858.743V99.82C858.743 98.5 858.413 97.49 857.753 96.79C857.093 96.07 856.193 95.71 855.053 95.71C853.893 95.71 852.973 96.07 852.293 96.79C851.633 97.49 851.303 98.5 851.303 99.82V109H847.103V86.8H851.303V94.45C851.843 93.73 852.563 93.17 853.463 92.77C854.363 92.35 855.363 92.14 856.463 92.14ZM882.387 100.33C882.387 100.93 882.347 101.47 882.267 101.95H870.117C870.217 103.15 870.637 104.09 871.377 104.77C872.117 105.45 873.027 105.79 874.107 105.79C875.667 105.79 876.777 105.12 877.437 103.78H881.967C881.487 105.38 880.567 106.7 879.207 107.74C877.847 108.76 876.177 109.27 874.197 109.27C872.597 109.27 871.157 108.92 869.877 108.22C868.617 107.5 867.627 106.49 866.907 105.19C866.207 103.89 865.857 102.39 865.857 100.69C865.857 98.97 866.207 97.46 866.907 96.16C867.607 94.86 868.587 93.86 869.847 93.16C871.107 92.46 872.557 92.11 874.197 92.11C875.777 92.11 877.187 92.45 878.427 93.13C879.687 93.81 880.657 94.78 881.337 96.04C882.037 97.28 882.387 98.71 882.387 100.33ZM878.037 99.13C878.017 98.05 877.627 97.19 876.867 96.55C876.107 95.89 875.177 95.56 874.077 95.56C873.037 95.56 872.157 95.88 871.437 96.52C870.737 97.14 870.307 98.01 870.147 99.13H878.037ZM898.961 109.27C897.601 109.27 896.381 109.03 895.301 108.55C894.221 108.05 893.361 107.38 892.721 106.54C892.101 105.7 891.761 104.77 891.701 103.75H895.931C896.011 104.39 896.321 104.92 896.861 105.34C897.421 105.76 898.111 105.97 898.931 105.97C899.731 105.97 900.351 105.81 900.791 105.49C901.251 105.17 901.481 104.76 901.481 104.26C901.481 103.72 901.201 103.32 900.641 103.06C900.101 102.78 899.231 102.48 898.031 102.16C896.791 101.86 895.771 101.55 894.971 101.23C894.191 100.91 893.511 100.42 892.931 99.76C892.371 99.1 892.091 98.21 892.091 97.09C892.091 96.17 892.351 95.33 892.871 94.57C893.411 93.81 894.171 93.21 895.151 92.77C896.151 92.33 897.321 92.11 898.661 92.11C900.641 92.11 902.221 92.61 903.401 93.61C904.581 94.59 905.231 95.92 905.351 97.6H901.331C901.271 96.94 900.991 96.42 900.491 96.04C900.011 95.64 899.361 95.44 898.541 95.44C897.781 95.44 897.191 95.58 896.771 95.86C896.371 96.14 896.171 96.53 896.171 97.03C896.171 97.59 896.451 98.02 897.011 98.32C897.571 98.6 898.441 98.89 899.621 99.19C900.821 99.49 901.811 99.8 902.591 100.12C903.371 100.44 904.041 100.94 904.601 101.62C905.181 102.28 905.481 103.16 905.501 104.26C905.501 105.22 905.231 106.08 904.691 106.84C904.171 107.6 903.411 108.2 902.411 108.64C901.431 109.06 900.281 109.27 898.961 109.27ZM924.639 92.38V109H920.409V106.9C919.869 107.62 919.159 108.19 918.279 108.61C917.419 109.01 916.479 109.21 915.459 109.21C914.159 109.21 913.009 108.94 912.009 108.4C911.009 107.84 910.219 107.03 909.639 105.97C909.079 104.89 908.799 103.61 908.799 102.13V92.38H912.999V101.53C912.999 102.85 913.329 103.87 913.989 104.59C914.649 105.29 915.549 105.64 916.689 105.64C917.849 105.64 918.759 105.29 919.419 104.59C920.079 103.87 920.409 102.85 920.409 101.53V92.38H924.639ZM932.983 94.78C933.523 94.02 934.263 93.39 935.203 92.89C936.163 92.37 937.253 92.11 938.473 92.11C939.893 92.11 941.173 92.46 942.313 93.16C943.473 93.86 944.383 94.86 945.043 96.16C945.723 97.44 946.063 98.93 946.063 100.63C946.063 102.33 945.723 103.84 945.043 105.16C944.383 106.46 943.473 107.47 942.313 108.19C941.173 108.91 939.893 109.27 938.473 109.27C937.253 109.27 936.173 109.02 935.233 108.52C934.313 108.02 933.563 107.39 932.983 106.63V116.92H928.783V92.38H932.983V94.78ZM941.773 100.63C941.773 99.63 941.563 98.77 941.143 98.05C940.743 97.31 940.203 96.75 939.523 96.37C938.863 95.99 938.143 95.8 937.363 95.8C936.603 95.8 935.883 96 935.203 96.4C934.543 96.78 934.003 97.34 933.583 98.08C933.183 98.82 932.983 99.69 932.983 100.69C932.983 101.69 933.183 102.56 933.583 103.3C934.003 104.04 934.543 104.61 935.203 105.01C935.883 105.39 936.603 105.58 937.363 105.58C938.143 105.58 938.863 105.38 939.523 104.98C940.203 104.58 940.743 104.01 941.143 103.27C941.563 102.53 941.773 101.65 941.773 100.63ZM964.565 100.33C964.565 100.93 964.525 101.47 964.445 101.95H952.295C952.395 103.15 952.815 104.09 953.555 104.77C954.295 105.45 955.205 105.79 956.285 105.79C957.845 105.79 958.955 105.12 959.615 103.78H964.145C963.665 105.38 962.745 106.7 961.385 107.74C960.025 108.76 958.355 109.27 956.375 109.27C954.775 109.27 953.335 108.92 952.055 108.22C950.795 107.5 949.805 106.49 949.085 105.19C948.385 103.89 948.035 102.39 948.035 100.69C948.035 98.97 948.385 97.46 949.085 96.16C949.785 94.86 950.765 93.86 952.025 93.16C953.285 92.46 954.735 92.11 956.375 92.11C957.955 92.11 959.365 92.45 960.605 93.13C961.865 93.81 962.835 94.78 963.515 96.04C964.215 97.28 964.565 98.71 964.565 100.33ZM960.215 99.13C960.195 98.05 959.805 97.19 959.045 96.55C958.285 95.89 957.355 95.56 956.255 95.56C955.215 95.56 954.335 95.88 953.615 96.52C952.915 97.14 952.485 98.01 952.325 99.13H960.215ZM971.831 94.96C972.371 94.08 973.071 93.39 973.931 92.89C974.811 92.39 975.811 92.14 976.931 92.14V96.55H975.821C974.501 96.55 973.501 96.86 972.821 97.48C972.161 98.1 971.831 99.18 971.831 100.72V109H967.631V92.38H971.831V94.96ZM986.689 105.13L990.889 92.38H995.359L989.209 109H984.109L977.989 92.38H982.489L986.689 105.13ZM999.848 90.4C999.108 90.4 998.488 90.17 997.988 89.71C997.508 89.23 997.268 88.64 997.268 87.94C997.268 87.24 997.508 86.66 997.988 86.2C998.488 85.72 999.108 85.48 999.848 85.48C1000.59 85.48 1001.2 85.72 1001.68 86.2C1002.18 86.66 1002.43 87.24 1002.43 87.94C1002.43 88.64 1002.18 89.23 1001.68 89.71C1001.2 90.17 1000.59 90.4 999.848 90.4ZM1001.92 92.38V109H997.718V92.38H1001.92ZM1012.43 109.27C1011.07 109.27 1009.85 109.03 1008.77 108.55C1007.69 108.05 1006.83 107.38 1006.19 106.54C1005.57 105.7 1005.23 104.77 1005.17 103.75H1009.4C1009.48 104.39 1009.79 104.92 1010.33 105.34C1010.89 105.76 1011.58 105.97 1012.4 105.97C1013.2 105.97 1013.82 105.81 1014.26 105.49C1014.72 105.17 1014.95 104.76 1014.95 104.26C1014.95 103.72 1014.67 103.32 1014.11 103.06C1013.57 102.78 1012.7 102.48 1011.5 102.16C1010.26 101.86 1009.24 101.55 1008.44 101.23C1007.66 100.91 1006.98 100.42 1006.4 99.76C1005.84 99.1 1005.56 98.21 1005.56 97.09C1005.56 96.17 1005.82 95.33 1006.34 94.57C1006.88 93.81 1007.64 93.21 1008.62 92.77C1009.62 92.33 1010.79 92.11 1012.13 92.11C1014.11 92.11 1015.69 92.61 1016.87 93.61C1018.05 94.59 1018.7 95.92 1018.82 97.6H1014.8C1014.74 96.94 1014.46 96.42 1013.96 96.04C1013.48 95.64 1012.83 95.44 1012.01 95.44C1011.25 95.44 1010.66 95.58 1010.24 95.86C1009.84 96.14 1009.64 96.53 1009.64 97.03C1009.64 97.59 1009.92 98.02 1010.48 98.32C1011.04 98.6 1011.91 98.89 1013.09 99.19C1014.29 99.49 1015.28 99.8 1016.06 100.12C1016.84 100.44 1017.51 100.94 1018.07 101.62C1018.65 102.28 1018.95 103.16 1018.97 104.26C1018.97 105.22 1018.7 106.08 1018.16 106.84C1017.64 107.6 1016.88 108.2 1015.88 108.64C1014.9 109.06 1013.75 109.27 1012.43 109.27ZM1024.55 90.4C1023.81 90.4 1023.19 90.17 1022.69 89.71C1022.21 89.23 1021.97 88.64 1021.97 87.94C1021.97 87.24 1022.21 86.66 1022.69 86.2C1023.19 85.72 1023.81 85.48 1024.55 85.48C1025.29 85.48 1025.9 85.72 1026.38 86.2C1026.88 86.66 1027.13 87.24 1027.13 87.94C1027.13 88.64 1026.88 89.23 1026.38 89.71C1025.9 90.17 1025.29 90.4 1024.55 90.4ZM1026.62 92.38V109H1022.42V92.38H1026.62ZM1038.15 109.27C1036.55 109.27 1035.11 108.92 1033.83 108.22C1032.55 107.5 1031.54 106.49 1030.8 105.19C1030.08 103.89 1029.72 102.39 1029.72 100.69C1029.72 98.99 1030.09 97.49 1030.83 96.19C1031.59 94.89 1032.62 93.89 1033.92 93.19C1035.22 92.47 1036.67 92.11 1038.27 92.11C1039.87 92.11 1041.32 92.47 1042.62 93.19C1043.92 93.89 1044.94 94.89 1045.68 96.19C1046.44 97.49 1046.82 98.99 1046.82 100.69C1046.82 102.39 1046.43 103.89 1045.65 105.19C1044.89 106.49 1043.85 107.5 1042.53 108.22C1041.23 108.92 1039.77 109.27 1038.15 109.27ZM1038.15 105.61C1038.91 105.61 1039.62 105.43 1040.28 105.07C1040.96 104.69 1041.5 104.13 1041.9 103.39C1042.3 102.65 1042.5 101.75 1042.5 100.69C1042.5 99.11 1042.08 97.9 1041.24 97.06C1040.42 96.2 1039.41 95.77 1038.21 95.77C1037.01 95.77 1036 96.2 1035.18 97.06C1034.38 97.9 1033.98 99.11 1033.98 100.69C1033.98 102.27 1034.37 103.49 1035.15 104.35C1035.95 105.19 1036.95 105.61 1038.15 105.61ZM1059.11 92.14C1061.09 92.14 1062.69 92.77 1063.91 94.03C1065.13 95.27 1065.74 97.01 1065.74 99.25V109H1061.54V99.82C1061.54 98.5 1061.21 97.49 1060.55 96.79C1059.89 96.07 1058.99 95.71 1057.85 95.71C1056.69 95.71 1055.77 96.07 1055.09 96.79C1054.43 97.49 1054.1 98.5 1054.1 99.82V109H1049.9V92.38H1054.1V94.45C1054.66 93.73 1055.37 93.17 1056.23 92.77C1057.11 92.35 1058.07 92.14 1059.11 92.14ZM1084.26 109.27C1082.66 109.27 1081.22 108.92 1079.94 108.22C1078.66 107.5 1077.65 106.49 1076.91 105.19C1076.19 103.89 1075.83 102.39 1075.83 100.69C1075.83 98.99 1076.2 97.49 1076.94 96.19C1077.7 94.89 1078.73 93.89 1080.03 93.19C1081.33 92.47 1082.78 92.11 1084.38 92.11C1085.98 92.11 1087.43 92.47 1088.73 93.19C1090.03 93.89 1091.05 94.89 1091.79 96.19C1092.55 97.49 1092.93 98.99 1092.93 100.69C1092.93 102.39 1092.54 103.89 1091.76 105.19C1091 106.49 1089.96 107.5 1088.64 108.22C1087.34 108.92 1085.88 109.27 1084.26 109.27ZM1084.26 105.61C1085.02 105.61 1085.73 105.43 1086.39 105.07C1087.07 104.69 1087.61 104.13 1088.01 103.39C1088.41 102.65 1088.61 101.75 1088.61 100.69C1088.61 99.11 1088.19 97.9 1087.35 97.06C1086.53 96.2 1085.52 95.77 1084.32 95.77C1083.12 95.77 1082.11 96.2 1081.29 97.06C1080.49 97.9 1080.09 99.11 1080.09 100.69C1080.09 102.27 1080.48 103.49 1081.26 104.35C1082.06 105.19 1083.06 105.61 1084.26 105.61ZM1103.63 95.83H1100.72V109H1096.46V95.83H1094.57V92.38H1096.46V91.54C1096.46 89.5 1097.04 88 1098.2 87.04C1099.36 86.08 1101.11 85.63 1103.45 85.69V89.23C1102.43 89.21 1101.72 89.38 1101.32 89.74C1100.92 90.1 1100.72 90.75 1100.72 91.69V92.38H1103.63V95.83ZM1117.64 88.06V101.02C1117.64 102.44 1118.01 103.53 1118.75 104.29C1119.49 105.03 1120.53 105.4 1121.87 105.4C1123.23 105.4 1124.28 105.03 1125.02 104.29C1125.76 103.53 1126.13 102.44 1126.13 101.02V88.06H1130.36V100.99C1130.36 102.77 1129.97 104.28 1129.19 105.52C1128.43 106.74 1127.4 107.66 1126.1 108.28C1124.82 108.9 1123.39 109.21 1121.81 109.21C1120.25 109.21 1118.83 108.9 1117.55 108.28C1116.29 107.66 1115.29 106.74 1114.55 105.52C1113.81 104.28 1113.44 102.77 1113.44 100.99V88.06H1117.64ZM1143.63 92.14C1145.61 92.14 1147.21 92.77 1148.43 94.03C1149.65 95.27 1150.26 97.01 1150.26 99.25V109H1146.06V99.82C1146.06 98.5 1145.73 97.49 1145.07 96.79C1144.41 96.07 1143.51 95.71 1142.37 95.71C1141.21 95.71 1140.29 96.07 1139.61 96.79C1138.95 97.49 1138.62 98.5 1138.62 99.82V109H1134.42V92.38H1138.62V94.45C1139.18 93.73 1139.89 93.17 1140.75 92.77C1141.63 92.35 1142.59 92.14 1143.63 92.14ZM1156.38 90.4C1155.64 90.4 1155.02 90.17 1154.52 89.71C1154.04 89.23 1153.8 88.64 1153.8 87.94C1153.8 87.24 1154.04 86.66 1154.52 86.2C1155.02 85.72 1155.64 85.48 1156.38 85.48C1157.12 85.48 1157.73 85.72 1158.21 86.2C1158.71 86.66 1158.96 87.24 1158.96 87.94C1158.96 88.64 1158.71 89.23 1158.21 89.71C1157.73 90.17 1157.12 90.4 1156.38 90.4ZM1158.45 92.38V109H1154.25V92.38H1158.45ZM1169.53 105.13L1173.73 92.38H1178.2L1172.05 109H1166.95L1160.83 92.38H1165.33L1169.53 105.13ZM1196.01 100.33C1196.01 100.93 1195.97 101.47 1195.89 101.95H1183.74C1183.84 103.15 1184.26 104.09 1185 104.77C1185.74 105.45 1186.65 105.79 1187.73 105.79C1189.29 105.79 1190.4 105.12 1191.06 103.78H1195.59C1195.11 105.38 1194.19 106.7 1192.83 107.74C1191.47 108.76 1189.8 109.27 1187.82 109.27C1186.22 109.27 1184.78 108.92 1183.5 108.22C1182.24 107.5 1181.25 106.49 1180.53 105.19C1179.83 103.89 1179.48 102.39 1179.48 100.69C1179.48 98.97 1179.83 97.46 1180.53 96.16C1181.23 94.86 1182.21 93.86 1183.47 93.16C1184.73 92.46 1186.18 92.11 1187.82 92.11C1189.4 92.11 1190.81 92.45 1192.05 93.13C1193.31 93.81 1194.28 94.78 1194.96 96.04C1195.66 97.28 1196.01 98.71 1196.01 100.33ZM1191.66 99.13C1191.64 98.05 1191.25 97.19 1190.49 96.55C1189.73 95.89 1188.8 95.56 1187.7 95.56C1186.66 95.56 1185.78 95.88 1185.06 96.52C1184.36 97.14 1183.93 98.01 1183.77 99.13H1191.66ZM1203.28 94.96C1203.82 94.08 1204.52 93.39 1205.38 92.89C1206.26 92.39 1207.26 92.14 1208.38 92.14V96.55H1207.27C1205.95 96.55 1204.95 96.86 1204.27 97.48C1203.61 98.1 1203.28 99.18 1203.28 100.72V109H1199.08V92.38H1203.28V94.96ZM1217.56 109.27C1216.2 109.27 1214.98 109.03 1213.9 108.55C1212.82 108.05 1211.96 107.38 1211.32 106.54C1210.7 105.7 1210.36 104.77 1210.3 103.75H1214.53C1214.61 104.39 1214.92 104.92 1215.46 105.34C1216.02 105.76 1216.71 105.97 1217.53 105.97C1218.33 105.97 1218.95 105.81 1219.39 105.49C1219.85 105.17 1220.08 104.76 1220.08 104.26C1220.08 103.72 1219.8 103.32 1219.24 103.06C1218.7 102.78 1217.83 102.48 1216.63 102.16C1215.39 101.86 1214.37 101.55 1213.57 101.23C1212.79 100.91 1212.11 100.42 1211.53 99.76C1210.97 99.1 1210.69 98.21 1210.69 97.09C1210.69 96.17 1210.95 95.33 1211.47 94.57C1212.01 93.81 1212.77 93.21 1213.75 92.77C1214.75 92.33 1215.92 92.11 1217.26 92.11C1219.24 92.11 1220.82 92.61 1222 93.61C1223.18 94.59 1223.83 95.92 1223.95 97.6H1219.93C1219.87 96.94 1219.59 96.42 1219.09 96.04C1218.61 95.64 1217.96 95.44 1217.14 95.44C1216.38 95.44 1215.79 95.58 1215.37 95.86C1214.97 96.14 1214.77 96.53 1214.77 97.03C1214.77 97.59 1215.05 98.02 1215.61 98.32C1216.17 98.6 1217.04 98.89 1218.22 99.19C1219.42 99.49 1220.41 99.8 1221.19 100.12C1221.97 100.44 1222.64 100.94 1223.2 101.62C1223.78 102.28 1224.08 103.16 1224.1 104.26C1224.1 105.22 1223.83 106.08 1223.29 106.84C1222.77 107.6 1222.01 108.2 1221.01 108.64C1220.03 109.06 1218.88 109.27 1217.56 109.27ZM1229.68 90.4C1228.94 90.4 1228.32 90.17 1227.82 89.71C1227.34 89.23 1227.1 88.64 1227.1 87.94C1227.1 87.24 1227.34 86.66 1227.82 86.2C1228.32 85.72 1228.94 85.48 1229.68 85.48C1230.42 85.48 1231.03 85.72 1231.51 86.2C1232.01 86.66 1232.26 87.24 1232.26 87.94C1232.26 88.64 1232.01 89.23 1231.51 89.71C1231.03 90.17 1230.42 90.4 1229.68 90.4ZM1231.75 92.38V109H1227.55V92.38H1231.75ZM1240.79 95.83V103.87C1240.79 104.43 1240.92 104.84 1241.18 105.1C1241.46 105.34 1241.92 105.46 1242.56 105.46H1244.51V109H1241.87C1238.33 109 1236.56 107.28 1236.56 103.84V95.83H1234.58V92.38H1236.56V88.27H1240.79V92.38H1244.51V95.83H1240.79ZM1263.43 92.38L1253.14 116.86H1248.67L1252.27 108.58L1245.61 92.38H1250.32L1254.61 103.99L1258.96 92.38H1263.43ZM1280.08 109.21C1278.62 109.21 1277.3 108.96 1276.12 108.46C1274.96 107.96 1274.04 107.24 1273.36 106.3C1272.68 105.36 1272.33 104.25 1272.31 102.97H1276.81C1276.87 103.83 1277.17 104.51 1277.71 105.01C1278.27 105.51 1279.03 105.76 1279.99 105.76C1280.97 105.76 1281.74 105.53 1282.3 105.07C1282.86 104.59 1283.14 103.97 1283.14 103.21C1283.14 102.59 1282.95 102.08 1282.57 101.68C1282.19 101.28 1281.71 100.97 1281.13 100.75C1280.57 100.51 1279.79 100.25 1278.79 99.97C1277.43 99.57 1276.32 99.18 1275.46 98.8C1274.62 98.4 1273.89 97.81 1273.27 97.03C1272.67 96.23 1272.37 95.17 1272.37 93.85C1272.37 92.61 1272.68 91.53 1273.3 90.61C1273.92 89.69 1274.79 88.99 1275.91 88.51C1277.03 88.01 1278.31 87.76 1279.75 87.76C1281.91 87.76 1283.66 88.29 1285 89.35C1286.36 90.39 1287.11 91.85 1287.25 93.73H1282.63C1282.59 93.01 1282.28 92.42 1281.7 91.96C1281.14 91.48 1280.39 91.24 1279.45 91.24C1278.63 91.24 1277.97 91.45 1277.47 91.87C1276.99 92.29 1276.75 92.9 1276.75 93.7C1276.75 94.26 1276.93 94.73 1277.29 95.11C1277.67 95.47 1278.13 95.77 1278.67 96.01C1279.23 96.23 1280.01 96.49 1281.01 96.79C1282.37 97.19 1283.48 97.59 1284.34 97.99C1285.2 98.39 1285.94 98.99 1286.56 99.79C1287.18 100.59 1287.49 101.64 1287.49 102.94C1287.49 104.06 1287.2 105.1 1286.62 106.06C1286.04 107.02 1285.19 107.79 1284.07 108.37C1282.95 108.93 1281.62 109.21 1280.08 109.21ZM1296.02 95.83V103.87C1296.02 104.43 1296.15 104.84 1296.41 105.1C1296.69 105.34 1297.15 105.46 1297.79 105.46H1299.74V109H1297.1C1293.56 109 1291.79 107.28 1291.79 103.84V95.83H1289.81V92.38H1291.79V88.27H1296.02V92.38H1299.74V95.83H1296.02ZM1301.68 100.63C1301.68 98.95 1302.01 97.46 1302.67 96.16C1303.35 94.86 1304.26 93.86 1305.4 93.16C1306.56 92.46 1307.85 92.11 1309.27 92.11C1310.51 92.11 1311.59 92.36 1312.51 92.86C1313.45 93.36 1314.2 93.99 1314.76 94.75V92.38H1318.99V109H1314.76V106.57C1314.22 107.35 1313.47 108 1312.51 108.52C1311.57 109.02 1310.48 109.27 1309.24 109.27C1307.84 109.27 1306.56 108.91 1305.4 108.19C1304.26 107.47 1303.35 106.46 1302.67 105.16C1302.01 103.84 1301.68 102.33 1301.68 100.63ZM1314.76 100.69C1314.76 99.67 1314.56 98.8 1314.16 98.08C1313.76 97.34 1313.22 96.78 1312.54 96.4C1311.86 96 1311.13 95.8 1310.35 95.8C1309.57 95.8 1308.85 95.99 1308.19 96.37C1307.53 96.75 1306.99 97.31 1306.57 98.05C1306.17 98.77 1305.97 99.63 1305.97 100.63C1305.97 101.63 1306.17 102.51 1306.57 103.27C1306.99 104.01 1307.53 104.58 1308.19 104.98C1308.87 105.38 1309.59 105.58 1310.35 105.58C1311.13 105.58 1311.86 105.39 1312.54 105.01C1313.22 104.61 1313.76 104.05 1314.16 103.33C1314.56 102.59 1314.76 101.71 1314.76 100.69ZM1330.71 95.83H1327.8V109H1323.54V95.83H1321.65V92.38H1323.54V91.54C1323.54 89.5 1324.12 88 1325.28 87.04C1326.44 86.08 1328.19 85.63 1330.53 85.69V89.23C1329.51 89.21 1328.8 89.38 1328.4 89.74C1328 90.1 1327.8 90.75 1327.8 91.69V92.38H1330.71V95.83ZM1341.05 95.83H1338.14V109H1333.88V95.83H1331.99V92.38H1333.88V91.54C1333.88 89.5 1334.46 88 1335.62 87.04C1336.78 86.08 1338.53 85.63 1340.87 85.69V89.23C1339.85 89.21 1339.14 89.38 1338.74 89.74C1338.34 90.1 1338.14 90.75 1338.14 91.69V92.38H1341.05V95.83ZM1345.63 109.21C1344.87 109.21 1344.24 108.98 1343.74 108.52C1343.26 108.04 1343.02 107.45 1343.02 106.75C1343.02 106.05 1343.26 105.47 1343.74 105.01C1344.24 104.53 1344.87 104.29 1345.63 104.29C1346.37 104.29 1346.98 104.53 1347.46 105.01C1347.94 105.47 1348.18 106.05 1348.18 106.75C1348.18 107.45 1347.94 108.04 1347.46 108.52C1346.98 108.98 1346.37 109.21 1345.63 109.21Z" fill="black"/>
<path d="M526.004 87.94V92.05H517.424V96.49H523.844V100.48H517.424V109H512.294V87.94H526.004ZM533.83 95.05C534.43 94.13 535.18 93.41 536.08 92.89C536.98 92.35 537.98 92.08 539.08 92.08V97.51H537.67C536.39 97.51 535.43 97.79 534.79 98.35C534.15 98.89 533.83 99.85 533.83 101.23V109H528.7V92.26H533.83V95.05ZM557.312 100.36C557.312 100.84 557.282 101.34 557.222 101.86H545.612C545.692 102.9 546.022 103.7 546.602 104.26C547.202 104.8 547.932 105.07 548.792 105.07C550.072 105.07 550.962 104.53 551.462 103.45H556.922C556.642 104.55 556.132 105.54 555.392 106.42C554.672 107.3 553.762 107.99 552.662 108.49C551.562 108.99 550.332 109.24 548.972 109.24C547.332 109.24 545.872 108.89 544.592 108.19C543.312 107.49 542.312 106.49 541.592 105.19C540.872 103.89 540.512 102.37 540.512 100.63C540.512 98.89 540.862 97.37 541.562 96.07C542.282 94.77 543.282 93.77 544.562 93.07C545.842 92.37 547.312 92.02 548.972 92.02C550.592 92.02 552.032 92.36 553.292 93.04C554.552 93.72 555.532 94.69 556.232 95.95C556.952 97.21 557.312 98.68 557.312 100.36ZM552.062 99.01C552.062 98.13 551.762 97.43 551.162 96.91C550.562 96.39 549.812 96.13 548.912 96.13C548.052 96.13 547.322 96.38 546.722 96.88C546.142 97.38 545.782 98.09 545.642 99.01H552.062ZM575.798 100.36C575.798 100.84 575.768 101.34 575.708 101.86H564.098C564.178 102.9 564.508 103.7 565.088 104.26C565.688 104.8 566.418 105.07 567.278 105.07C568.558 105.07 569.448 104.53 569.948 103.45H575.408C575.128 104.55 574.618 105.54 573.878 106.42C573.158 107.3 572.248 107.99 571.148 108.49C570.048 108.99 568.818 109.24 567.458 109.24C565.818 109.24 564.358 108.89 563.078 108.19C561.798 107.49 560.798 106.49 560.078 105.19C559.358 103.89 558.998 102.37 558.998 100.63C558.998 98.89 559.348 97.37 560.048 96.07C560.768 94.77 561.768 93.77 563.048 93.07C564.328 92.37 565.798 92.02 567.458 92.02C569.078 92.02 570.518 92.36 571.778 93.04C573.038 93.72 574.018 94.69 574.718 95.95C575.438 97.21 575.798 98.68 575.798 100.36ZM570.548 99.01C570.548 98.13 570.248 97.43 569.648 96.91C569.048 96.39 568.298 96.13 567.398 96.13C566.538 96.13 565.808 96.38 565.208 96.88C564.628 97.38 564.268 98.09 564.128 99.01H570.548Z" fill="white"/>
</svg>
